<svg width="32" height="32" viewBox="0 0 32 32" fill="none" xmlns="http://www.w3.org/2000/svg">
<path d="M9.05664 2.5L9.16211 2.52246C9.93667 2.69122 10.3368 3.31452 10.5156 3.62891L10.6152 3.81152C10.778 4.12667 10.9075 4.45358 11.0137 4.77148C11.2147 4.50087 11.5051 4.22997 11.9199 4.13086C12.4945 3.99375 12.9436 4.26227 13.1846 4.47656C13.4207 4.68661 13.585 4.94625 13.6904 5.13965C13.7467 5.24292 13.7962 5.34642 13.8389 5.44336L13.9453 5.70898L14.0791 6.09961C14.2067 6.4999 14.3164 6.9284 14.4082 7.38379L14.5488 8.14355C14.5575 8.19468 14.5638 8.24637 14.5723 8.29785C14.6082 8.26204 14.6447 8.22683 14.6826 8.19336C14.8965 8.00477 15.1769 7.82599 15.5244 7.74512C15.8872 7.66082 16.2577 7.69895 16.6035 7.84863H16.6045L16.8008 7.94922C16.9687 8.04804 17.1161 8.17083 17.2441 8.29785C17.3257 7.80896 17.4204 7.3223 17.5332 6.84082L17.5879 6.61719C17.662 6.33064 17.7934 5.87724 17.9756 5.45996C18.0921 5.19302 18.2667 4.85103 18.5215 4.58203C18.7817 4.30735 19.3254 3.92669 20.0244 4.17188H20.0234C20.3981 4.30292 20.6451 4.56242 20.7852 4.74121C20.7927 4.75078 20.7994 4.76089 20.8066 4.77051C20.9315 4.40242 21.0831 4.04443 21.2627 3.69824H21.2637L21.3506 3.54492C21.4434 3.39393 21.5521 3.25077 21.668 3.11621L21.6689 3.11523L21.7686 3.00781C22.0097 2.76821 22.3093 2.60095 22.6523 2.52441L22.7598 2.5H23.1035L23.2158 2.52637C23.5888 2.61349 23.9057 2.80643 24.1533 3.07617L24.2549 3.19629L24.4238 3.42871C24.5843 3.66533 24.7198 3.91551 24.8271 4.17969L24.917 4.41504C25.1894 4.23576 25.541 4.1345 25.9346 4.23242C26.3547 4.33699 26.6159 4.62565 26.7402 4.78516C27.0035 5.123 27.156 5.54651 27.2109 5.71387L27.3408 6.1416C27.4616 6.57423 27.5569 7.02387 27.627 7.48926L27.7119 8.10352C27.7902 8.71415 27.8472 9.31398 27.8818 9.90234L27.915 10.5869C27.9693 11.9544 27.9448 13.3089 27.8398 14.6504L27.7803 15.3203C27.7096 16.0401 27.5959 16.7501 27.4404 17.4502L27.4414 17.4512C27.4091 17.5972 27.3705 17.7452 27.3271 17.8945L27.1816 18.3467C27.1278 18.4986 26.9719 18.9123 26.7051 19.2383C26.5777 19.3939 26.3098 19.6751 25.8838 19.7637C25.744 19.7927 25.6109 19.7948 25.4854 19.7803L25.3916 20.2354C25.2901 20.6931 25.169 21.1301 25.0264 21.5449L24.876 21.9521C24.7906 22.1701 24.6427 22.5108 24.4297 22.8271C24.257 23.0835 23.9142 23.5201 23.3652 23.6875L23.2529 23.7168C22.6425 23.854 22.1668 23.6035 21.8467 23.3193C21.7774 23.6931 21.7013 24.0659 21.6123 24.4346C21.559 24.6556 21.4157 25.211 21.1943 25.7207C21.0864 25.9692 20.9325 26.2724 20.7188 26.5244C20.5367 26.7391 20.1487 27.1021 19.5732 27.0918L19.4561 27.084H19.4551C19.145 27.0515 18.8978 26.9212 18.7031 26.7656L18.624 27.0732C18.4406 27.7397 18.1794 28.5401 17.7451 29.25L17.5479 29.5488C17.3559 29.8171 17.1186 30.0514 16.8311 30.2285L16.7051 30.3008C16.0964 30.6239 15.4939 30.5102 15.0625 30.2725C14.7651 30.1086 14.5283 29.8798 14.3516 29.6602L14.1943 29.4463C13.9222 29.0358 13.7003 28.5879 13.5264 28.1074L13.3291 27.5205C13.2511 27.2719 13.1808 27.0211 13.1152 26.7695C13.0756 26.8014 13.0346 26.8329 12.9912 26.8613C12.757 27.0145 12.4317 27.1332 12.0518 27.0801C11.7766 27.0415 11.5495 26.9237 11.3701 26.7842L11.207 26.6387C10.918 26.3501 10.7275 25.9791 10.6025 25.6777L10.498 25.4053L10.4971 25.4033C10.4401 25.2438 10.3885 25.0848 10.3408 24.9268L10.2119 24.4551C10.1199 24.0776 10.0398 23.6959 9.96875 23.3125C9.92889 23.3482 9.88964 23.385 9.84668 23.418V23.4189C9.46942 23.7082 9.00059 23.8329 8.52148 23.709C8.10423 23.6009 7.8103 23.3361 7.63086 23.1348C7.36201 22.8331 7.16664 22.4636 7.04394 22.1914L6.94531 21.958C6.79176 21.5685 6.659 21.1604 6.54687 20.7344L6.44141 20.3018C6.4025 20.1286 6.36709 19.9542 6.33203 19.7793C6.3098 19.7819 6.28748 19.7857 6.26465 19.7871C5.96932 19.8057 5.71833 19.7177 5.53223 19.6074C5.20124 19.4112 5.00385 19.1048 4.90234 18.9277C4.67869 18.5376 4.54377 18.0808 4.50293 17.9336L4.40039 17.5371C4.17598 16.6097 4.05844 15.67 3.98535 14.7539V14.7529C3.84019 12.9248 3.83983 11.0995 3.98242 9.27832L4.03613 8.68555C4.09653 8.10112 4.17611 7.54274 4.27637 7.01172L4.36035 6.60156C4.45275 6.18345 4.57561 5.74447 4.76367 5.32031L4.86328 5.11719C4.90341 5.04228 4.95058 4.96187 5.00586 4.88184C5.10936 4.73203 5.28855 4.51232 5.56445 4.35938L5.56543 4.3584L5.6875 4.29883C5.9788 4.17396 6.30876 4.15459 6.62695 4.27051C6.72896 4.30769 6.81985 4.35567 6.90039 4.4082C7.00621 4.13727 7.12629 3.87768 7.26465 3.63184L7.34277 3.49902C7.5504 3.16444 7.93778 2.67892 8.60449 2.52539L8.71582 2.5H9.05664ZM22.9316 4.83789C22.8477 5.01806 22.7726 5.20174 22.708 5.38965L22.624 5.65625C22.3235 6.69249 22.1383 7.8215 22.0107 8.98145L22.0098 8.98047C21.9541 9.49569 21.5197 9.87981 21.0088 9.87988C20.4755 9.87988 20.0878 9.48274 20.0137 9.03613L20.0107 9.02051L20.0088 9.00488C19.9387 8.47796 19.8431 7.95809 19.7227 7.44629L19.5937 6.9375C19.5907 6.92636 19.5871 6.91538 19.584 6.9043L19.4805 7.29688C19.1197 8.83688 18.9437 10.4688 18.8428 12.1279L18.8418 12.1523L18.8389 12.1768C18.817 12.3751 18.7318 12.596 18.5527 12.7764C18.3771 12.9532 18.1612 13.0396 17.9629 13.0645L17.9639 13.0654C17.9616 13.0657 17.9593 13.0652 17.957 13.0654C17.9547 13.0657 17.9525 13.0671 17.9502 13.0674L17.9492 13.0664C17.3931 13.1288 16.9697 12.7418 16.8623 12.3096L16.8584 12.2959C16.6744 11.5077 16.4664 10.7818 16.1504 10.1855L16.0078 9.9375C15.9775 9.88887 15.9423 9.8423 15.9082 9.7998C15.8181 9.91394 15.7068 10.0942 15.5869 10.3506C15.2616 11.0462 15.0456 11.9203 14.9697 12.2734L14.9678 12.2725C14.8582 12.7897 14.3821 13.1068 13.8994 13.0664C13.4033 13.0248 13.0187 12.6306 12.9785 12.1445L12.9766 12.1309V12.1299L12.8701 10.7588C12.7973 9.95453 12.6992 9.19493 12.5771 8.47949L12.4473 7.7793C12.3841 7.46566 12.3112 7.17611 12.2334 6.90918C12.0429 7.55449 11.9167 8.2645 11.8076 9.0166L11.8057 9.03418L11.8018 9.05078C11.7296 9.45043 11.3682 9.88336 10.8105 9.87891V9.87988C10.7959 9.87988 10.7811 9.87758 10.7666 9.87695C10.7509 9.87619 10.7347 9.87744 10.7187 9.87598V9.875C10.2503 9.83245 9.86097 9.46686 9.80859 8.98047V8.98145C9.69743 7.96424 9.54471 6.98183 9.30762 6.06445L9.20117 5.67578C9.11188 5.37022 9.00939 5.08767 8.89062 4.83789C8.83229 4.95957 8.77781 5.0887 8.72754 5.22559L8.64844 5.45801C8.43421 6.14099 8.27233 6.85111 8.16309 7.58887L8.16113 7.58789C8.094 8.04734 7.72546 8.3922 7.27734 8.44141L7.27832 8.44238C7.27671 8.44256 7.27504 8.44221 7.27344 8.44238C7.25244 8.4446 7.23127 8.44539 7.20996 8.44629C6.6366 8.47534 6.27972 8.04419 6.18945 7.67969C6.09702 8.22496 6.0248 8.81027 5.97559 9.43555C5.84126 11.1515 5.84263 12.8711 5.97949 14.5947L6.04883 15.3242C6.10231 15.8038 6.17168 16.2709 6.2666 16.7246C6.45517 16.5398 6.71065 16.4375 6.96777 16.4346L7.05469 16.4375L7.22266 16.4648C7.60124 16.5614 7.93326 16.8808 7.98047 17.3389H7.98144C8.07202 18.2051 8.20914 19.0468 8.39258 19.8633L8.48144 20.2256C8.57477 20.5801 8.68284 20.9131 8.80566 21.2246L8.87012 21.375C8.87656 21.3892 8.88374 21.4034 8.89062 21.418C8.91302 21.3696 8.93869 21.318 8.96191 21.2607L9.05273 21.0225C9.25815 20.4604 9.40516 19.8564 9.52148 19.2305H9.52246C9.61242 18.741 10.04 18.4092 10.5107 18.4092V18.4082C10.5169 18.4082 10.5232 18.4091 10.5293 18.4092C10.542 18.4094 10.5546 18.4104 10.5674 18.4111C10.5858 18.4121 10.604 18.4131 10.6221 18.415C10.6266 18.4155 10.6312 18.4154 10.6357 18.416L10.6348 18.417C11.1144 18.4756 11.4813 18.8694 11.5127 19.3477H11.5146C11.6198 20.9416 11.7963 22.5125 12.1543 23.9814L12.2344 24.2773C12.2836 24.1065 12.3211 23.9616 12.3398 23.8809L12.5293 23.0264C12.6314 22.5311 13.0662 22.2257 13.5117 22.2256H13.6113L13.709 22.2451C13.9178 22.2872 14.4542 22.5114 14.5098 23.124L14.5732 23.6846C14.7113 24.8011 14.9144 25.893 15.2363 26.9189L15.4072 27.4258L15.5059 27.6758C15.6092 27.918 15.7273 28.139 15.8604 28.3398H15.8613C15.8753 28.361 15.8899 28.3819 15.9053 28.4014C15.9097 28.3955 15.9164 28.3911 15.9209 28.3848L16.0439 28.1982C16.3203 27.7444 16.5232 27.1675 16.6953 26.542L16.7998 26.1426C16.9656 25.4676 17.0957 24.7454 17.1982 24.0107L17.3086 23.125C17.365 22.6081 17.8027 22.2275 18.3105 22.2275L18.4824 22.2422C18.8494 22.3065 19.1732 22.5732 19.2812 22.9639L19.3018 23.0557V23.0566L19.4297 23.6885C19.4715 23.8737 19.524 24.0757 19.582 24.2773C19.6185 24.1503 19.6497 24.0407 19.668 23.9648L19.793 23.4082C20.066 22.1014 20.212 20.7286 20.3057 19.3447H20.3066C20.3377 18.8482 20.707 18.5133 21.1104 18.4297V18.4287C21.7745 18.2952 22.135 18.7688 22.2549 19.0908L22.292 19.2178L22.293 19.2236L22.3574 19.543C22.4413 19.9378 22.5829 20.5292 22.7764 21.0527C22.8276 21.1913 22.8801 21.3124 22.9287 21.417C22.9595 21.3506 22.9902 21.2852 23.0146 21.2227L23.1348 20.8936C23.2507 20.5563 23.3529 20.1923 23.4395 19.8018C23.6151 19.0093 23.7476 18.1889 23.8369 17.3398L23.8389 17.3213L23.8418 17.3037C23.8988 16.9024 24.2279 16.4754 24.7695 16.4365L24.8672 16.4346C25.1349 16.4404 25.3734 16.551 25.5488 16.7236C25.6552 16.1976 25.737 15.6651 25.79 15.125V15.124L25.8457 14.4951C25.9444 13.2331 25.9682 11.9568 25.917 10.666L25.8848 10.0195C25.8529 9.4791 25.8012 8.92545 25.7285 8.3584L25.6484 7.78613C25.6433 7.7517 25.6363 7.71769 25.6309 7.68359C25.5101 8.1887 25.0479 8.44708 24.6553 8.44727C24.242 8.44727 23.7495 8.16106 23.6621 7.60059L23.6611 7.60156C23.5255 6.76265 23.3555 5.97373 23.0928 5.24316L22.9746 4.93359C22.9616 4.90146 22.9464 4.86953 22.9316 4.83789Z" fill="#360C5F"/>
<path d="M2 11.3223C2.00002 10.4277 2.0874 9.58446 2.24609 8.93652C2.32354 8.62038 2.4316 8.29398 2.58887 8.02246C2.70409 7.82355 3.0597 7.28516 3.74414 7.28516L3.86816 7.29102C4.47191 7.35073 4.7914 7.83598 4.89941 8.02246C5.05665 8.29392 5.16377 8.62044 5.24121 8.93652C5.39991 9.58446 5.48826 10.4277 5.48828 11.3223C5.48828 12.2168 5.39989 13.06 5.24121 13.708C5.16376 14.0242 5.05672 14.3515 4.89941 14.623C4.78412 14.822 4.42839 15.3603 3.74414 15.3604C3.05992 15.3604 2.7042 14.8221 2.58887 14.623C2.43156 14.3515 2.32355 14.0242 2.24609 13.708C2.08744 13.06 2 12.2167 2 11.3223Z" fill="#360C5F"/>
<path d="M26.3301 11.3223C26.3301 10.4277 26.4175 9.58441 26.5762 8.93652C26.6536 8.62043 26.7618 8.2939 26.9189 8.02246C27.0341 7.82364 27.3898 7.28516 28.0742 7.28516L28.1982 7.29102C28.8016 7.35088 29.1205 7.83603 29.2285 8.02246C29.3856 8.29389 29.4939 8.62044 29.5713 8.93652C29.7299 9.58441 29.8174 10.4277 29.8174 11.3223C29.8174 12.2168 29.7299 13.0601 29.5713 13.708C29.4939 14.0241 29.3857 14.3506 29.2285 14.6221C29.1136 14.8206 28.7587 15.3601 28.0742 15.3604C27.3895 15.3604 27.0339 14.8206 26.9189 14.6221C26.7618 14.3506 26.6536 14.0241 26.5762 13.708C26.4176 13.0601 26.3301 12.2168 26.3301 11.3223Z" fill="#360C5F"/>
</svg>
