<svg width="33" height="33" viewBox="0 0 33 33" fill="none" xmlns="http://www.w3.org/2000/svg">
<path d="M0.855225 5.37466C0.855225 2.73307 2.96786 0.606445 5.59207 0.606445H27.6973C30.3215 0.606445 32.4342 2.73307 32.4342 5.37466V27.6263C32.4342 30.2679 30.3215 32.3945 27.6973 32.3945H5.59207C2.96786 32.3945 0.855225 30.2679 0.855225 27.6263V5.37466Z" fill="#FF5500"/>
<path d="M4.49413 17.3701L4.30908 18.7359L4.49413 20.1017C4.49413 20.2259 4.67919 20.2259 4.67919 20.1017L4.86424 18.7359L4.67919 17.3701C4.67919 17.1838 4.49413 17.1838 4.49413 17.3701ZM5.60424 16.501C5.60424 16.3147 5.41919 16.3147 5.41919 16.501L5.11077 18.7361L5.3575 20.9091C5.3575 21.0954 5.60424 21.0954 5.60424 20.9091L5.85098 18.7361L5.60424 16.501ZM9.24319 14.6384L9.05814 18.7361L9.1815 21.2196C9.1815 21.7163 9.61329 21.7163 9.61329 21.2196L9.86003 18.7361L9.61329 14.6384C9.61329 14.3279 9.24319 14.3279 9.24319 14.6384ZM7.33119 16.0042L7.08466 18.7361L7.26971 21.2196C7.26971 21.5921 7.57813 21.5921 7.57813 21.2196L7.82487 18.7361L7.57813 16.0042C7.57813 15.818 7.33119 15.818 7.33119 16.0042ZM11.6487 21.2194L11.8337 18.7359L11.6487 13.2724C11.6487 12.8998 11.2169 12.8998 11.2169 13.2724L11.0318 18.7359L11.1552 21.2194C11.1552 21.7161 11.6487 21.7161 11.6487 21.2194ZM15.8428 21.2194L15.9661 18.7359L15.8428 12.4031C15.8428 11.9684 15.2259 11.9684 15.2259 12.4031L15.1026 18.7359L15.2259 21.2194C15.2259 21.7161 15.8428 21.7161 15.8428 21.2194ZM13.7457 21.2194L13.9308 18.7359L13.7457 13.2103C13.7457 12.8377 13.1906 12.8377 13.1906 13.2103L13.0672 18.7359L13.1906 21.2194C13.1906 21.7161 13.7457 21.7161 13.7457 21.2194ZM8.62656 21.2194L8.81161 18.7359L8.62656 16.1903C8.62656 16.004 8.25645 16.004 8.25645 16.1903L8.0714 18.7359L8.25645 21.2194C8.25645 21.654 8.62656 21.654 8.62656 21.2194ZM6.59119 21.2194L6.83792 18.7359L6.59119 16.0661C6.59119 15.8798 6.34445 15.8798 6.34445 16.0661L6.09771 18.7359L6.34445 21.2194C6.34445 21.4678 6.59119 21.4678 6.59119 21.2194ZM14.2392 13.4586L14.1158 18.7359L14.1775 21.2194C14.1775 21.7161 14.7943 21.7161 14.7943 21.2194L14.9177 18.7359L14.7943 13.4586C14.7943 13.024 14.2392 13.024 14.2392 13.4586ZM10.6619 21.2194L10.847 18.7359L10.6619 13.707C10.6619 13.3345 10.2301 13.3345 10.2301 13.707L10.0451 18.7361L10.1685 21.2196C10.1685 21.7163 10.6619 21.7161 10.6619 21.2194ZM12.6973 21.2194L12.8823 18.7359L12.6973 13.0861C12.6973 12.7135 12.2038 12.7135 12.2038 13.0861L12.0188 18.7359L12.2038 21.2194C12.2038 21.7161 12.6973 21.7161 12.6973 21.2194ZM24.7861 15.6938C24.4777 12.1549 20.8388 9.85769 17.5082 11.1614C17.2615 11.2856 17.1998 11.3477 17.1998 11.534V21.2194C17.1998 21.4057 17.3232 21.5919 17.5082 21.5919H25.9581C27.6234 21.5919 28.9805 20.2261 28.9805 18.5496C28.9805 16.2524 26.8217 15.0107 24.7863 15.6936L24.7861 15.6938ZM16.2746 11.8444L16.0895 18.7361L16.2746 21.2196C16.2746 21.7163 16.8914 21.7163 16.8914 21.2196L17.0765 18.7361L16.8914 11.8447C16.8914 11.41 16.2746 11.4098 16.2746 11.8444Z" fill="white"/>
</svg>
