<svg width="33" height="33" viewBox="0 0 33 33" fill="none" xmlns="http://www.w3.org/2000/svg">
<g clip-path="url(#clip0_371_2233)">
<path d="M16.7491 0.552734C7.93981 0.552734 0.798096 7.69426 0.798096 16.5036C0.798096 25.3133 7.93981 32.4543 16.7491 32.4543C25.5594 32.4543 32.7004 25.3133 32.7004 16.5036C32.7004 7.69483 25.5594 0.553496 16.749 0.553496L16.7491 0.552734ZM24.0642 23.5584C23.7785 24.027 23.1651 24.1756 22.6966 23.888C18.9514 21.6004 14.2368 21.0823 8.68438 22.3508C8.14933 22.4727 7.616 22.1375 7.4941 21.6023C7.37162 21.067 7.70552 20.5337 8.24191 20.4118C14.3181 19.023 19.5301 19.6213 23.7347 22.1908C24.2032 22.4784 24.3518 23.0899 24.0642 23.5584ZM26.0166 19.2146C25.6566 19.8004 24.8909 19.9851 24.3061 19.6251C20.0185 16.9891 13.4827 16.2259 8.41124 17.7653C7.75352 17.964 7.05886 17.5933 6.85924 16.9367C6.66114 16.279 7.032 15.5857 7.68857 15.3857C13.4815 13.628 20.6832 14.4794 25.607 17.5051C26.1918 17.8651 26.3766 18.6306 26.0166 19.2146ZM26.1842 14.692C21.0432 11.6384 12.5613 11.3577 7.65295 12.8474C6.86476 13.0864 6.03124 12.6415 5.79238 11.8533C5.55352 11.0647 5.9981 10.2318 6.78686 9.99216C12.4213 8.28169 21.788 8.61216 27.7069 12.1259C28.4173 12.5466 28.6497 13.4623 28.2288 14.1703C27.8097 14.8792 26.8916 15.1129 26.185 14.692H26.1842Z" fill="#1ED760"/>
</g>
<defs>
<clipPath id="clip0_371_2233">
<rect width="32" height="32" fill="white" transform="translate(0.75 0.5)"/>
</clipPath>
</defs>
</svg>
