<svg width="234" height="145" viewBox="0 0 234 145" fill="none" xmlns="http://www.w3.org/2000/svg">
<path d="M99.3042 58.4324C100.648 61.5385 101.755 64.6281 102.894 67.7014H95.7147C96.6899 64.6281 97.9602 61.5385 99.3042 58.4324ZM111.007 76.831C108.68 68.7995 105.705 60.7927 102.115 52.876H96.567C93.0184 60.9074 90.0435 68.7913 87.675 76.831H92.8955C93.3872 75.2411 93.8707 73.4791 94.3624 71.7745H104.107C104.598 73.4791 105.205 75.2411 105.574 76.831H110.999H111.007Z" fill="#22536B"/>
<path d="M122.268 57.0798C126.423 57.0798 127.324 57.5715 127.324 60.3006C127.324 63.6033 125.931 64.0131 121.973 64.0131H118.916V57.0798H122.268ZM113.859 76.8306H118.907V68.0616H123.603C128.283 68.0616 132.372 67.2093 132.372 60.4399C132.372 53.6705 128.037 52.8838 122.989 52.8838H113.843V76.8388L113.859 76.8306Z" fill="#22536B"/>
<path d="M136.413 76.831H141.355V66.7097H151.869V62.6366H141.355V57.0802H153.328V52.876H136.405V76.831H136.413Z" fill="#22536B"/>
<path d="M92.2482 109.604H87.6833V133.428H92.2482V123.799C92.2482 120.496 93.0185 119.234 96.0836 119.234C99.1486 119.234 99.0585 120.496 99.0585 124.422V133.428H103.746V123.553C103.746 118.013 102.648 115.571 97.3047 115.571C95.5918 115.571 93.3873 115.817 92.2482 117.529V109.613V109.604Z" fill="#22536B"/>
<path d="M138.773 133.56H143.469V122.832C143.469 117.407 142.24 115.571 137.667 115.571C134.446 115.571 132.987 116.555 131.717 118.268V115.932H127.316V133.56H131.995V125.152C131.995 120.997 132.372 119.235 135.675 119.235C138.65 119.235 138.765 120.743 138.765 123.439V133.56H138.773Z" fill="#22536B"/>
<path d="M159.491 124.668C159.491 129.232 158.147 130.093 155.549 130.093C152.951 130.093 151.623 129.241 151.623 124.536C151.623 120.873 152.361 119.234 155.664 119.234C158.278 119.234 159.491 120.381 159.491 124.676V124.668ZM164.056 133.428V109.604H159.376V117.406C158.524 116.423 157.172 115.563 154.205 115.563C149.64 115.563 146.813 117.767 146.813 124.668C146.813 130.339 148.771 133.92 154.205 133.92C156.573 133.92 158.393 133.674 159.491 131.83V133.42H164.056V133.428Z" fill="#22536B"/>
<path d="M168.399 133.429H173.079V115.932H168.399V133.429Z" fill="#22536B"/>
<path d="M168.629 111.497C168.153 112.841 168.514 114.308 169.727 114.669C170.825 114.915 172.341 114.194 172.964 112.841C173.57 111.497 173.079 110.014 171.981 109.604C170.718 109.244 169.251 110.145 168.629 111.497Z" fill="#22536B"/>
<path d="M193.059 121.849C192.584 117.53 190.33 115.571 185.273 115.571C178.258 115.571 176.668 119.235 176.668 124.906C176.668 129.962 178.012 133.929 185.027 133.929C190.863 133.929 192.698 131.233 193.059 127.274H188.379C188.248 128.995 187.396 130.102 184.782 130.102C182.462 130.102 181.479 129.249 181.479 124.676C181.479 120.103 182.462 119.235 185.027 119.235C187.396 119.235 188.019 120.087 188.379 121.849H193.059Z" fill="#22536B"/>
<path d="M220.587 124.537C220.587 120.628 221.57 119.235 224.496 119.235C227.602 119.235 228.454 120.743 228.454 124.791C228.454 128.504 227.717 130.093 224.627 130.093C221.538 130.093 220.587 128.618 220.587 124.537ZM216.137 115.932V140.198H220.833V131.97C221.439 132.823 222.677 133.929 226.004 133.929C231.56 133.929 233.265 130.872 233.265 124.791C233.265 117.661 230.815 115.571 226.004 115.571C223.521 115.571 221.816 116.063 220.579 117.776V115.932H216.129H216.137Z" fill="#22536B"/>
<path d="M118.916 115.931V117.652C117.695 115.808 115.941 115.316 113.499 115.316C108.688 115.316 106.074 117.406 106.074 124.536C106.074 130.617 107.95 133.674 113.499 133.674C116.801 133.674 118.063 132.707 118.67 131.83V133.551H123.366V115.923H118.916V115.931ZM114.72 129.847C111.622 129.847 110.884 128.372 110.884 124.544C110.884 120.717 111.737 119.119 114.835 119.119C117.932 119.119 118.793 120.381 118.793 124.421C118.793 128.462 117.809 129.847 114.712 129.847H114.72Z" fill="#22536B"/>
<path d="M207.63 115.931V117.652C206.401 115.808 204.639 115.316 202.189 115.316C197.394 115.316 194.78 117.406 194.78 124.536C194.78 130.617 196.657 133.674 202.189 133.674C205.54 133.674 206.753 132.707 207.376 131.83V133.551H212.056V115.923H207.622L207.63 115.931ZM203.533 129.847C200.312 129.847 199.591 128.372 199.591 124.544C199.591 120.717 200.607 119.119 203.664 119.119C206.524 119.119 207.622 120.381 207.622 124.421C207.622 128.462 206.524 129.847 203.533 129.847Z" fill="#22536B"/>
<path d="M149.747 105.202H154.443V94.4417C154.443 89.1394 153.213 87.1807 148.64 87.1807C145.42 87.1807 144.075 88.1641 142.723 89.9097V87.5413H138.273V105.202H142.969V96.8102C142.969 92.7371 143.33 91.0243 146.682 91.0243C149.624 91.0243 149.738 92.3519 149.738 95.0974V105.202H149.747Z" fill="#22536B"/>
<path d="M111.253 105.202V98.646C111.253 94.7204 111.499 91.6307 115.211 91.6307C116.187 91.6307 116.678 91.7455 116.678 91.7455V87.3118C116.678 87.3118 116.31 87.1807 115.572 87.1807C113.245 87.1807 111.983 87.9182 111.007 89.795V87.5413H106.565V105.202H111.253Z" fill="#22536B"/>
<path d="M87.6833 105.203H92.6169V95.0984H103.14V91.0253H92.6169V85.3377H104.607V81.2646H87.6833V105.203Z" fill="#22536B"/>
<path d="M174.292 93.4583C173.816 89.2705 171.612 87.1807 166.555 87.1807C159.491 87.1807 157.917 91.0243 157.917 96.5643C157.917 101.621 159.245 105.587 166.309 105.587C172.095 105.587 173.931 102.842 174.292 98.9H169.612C169.497 100.777 168.629 101.744 166.031 101.744C163.695 101.744 162.712 100.891 162.712 96.4578C162.712 92.0241 163.695 91.0325 166.309 91.0325C168.629 91.0325 169.251 91.8848 169.612 93.4665H174.292V93.4583Z" fill="#22536B"/>
<path d="M182.462 94.7204C182.577 91.8766 183.315 91.0243 186.044 91.0243C188.134 91.0243 189.478 91.4996 189.592 94.7204H182.462ZM189.338 100.162C188.863 101.49 187.765 101.736 186.036 101.736C183.438 101.736 182.569 101.014 182.339 97.6625H194.28C194.28 90.0408 192.436 87.1807 186.281 87.1807C178.856 87.1807 177.529 91.139 177.529 96.2037C177.529 103.711 180.586 105.587 186.036 105.587C190.846 105.587 193.542 104.194 194.149 100.162H189.338Z" fill="#22536B"/>
<path d="M130.381 87.5424V89.2634C129.152 87.4194 127.439 86.9277 124.956 86.9277C120.145 86.9277 117.572 89.0175 117.572 96.1967C117.572 102.228 119.408 105.449 124.956 105.449C128.291 105.449 129.521 104.318 130.127 103.458V105.195H134.807V87.5342H130.373L130.381 87.5424ZM126.308 101.622C123.12 101.622 122.382 100.032 122.382 96.1967C122.382 92.3613 123.235 90.7714 126.423 90.7714C129.283 90.7714 130.381 92.1154 130.381 96.0574C130.381 99.9993 129.283 101.614 126.308 101.614V101.622Z" fill="#22536B"/>
<path d="M42.1664 68.0617C31.5617 68.4223 21.4486 72.9871 13.9089 80.1662C60.1962 57.9404 75.2428 92.9837 75.7345 94.8523C73.407 78.9041 59.8274 67.5618 42.1664 68.0535V68.0617Z" fill="#F59E21"/>
<path d="M87.5603 31.437C82.5038 29.2324 75.6115 32.0434 72.0219 37.7146C68.5963 43.5497 69.9403 49.9503 74.9968 52.1548C80.0533 54.3921 86.9456 51.532 90.4122 45.8608C93.8789 40.0749 92.6168 33.6743 87.5603 31.437Z" fill="#F59E21"/>
<path d="M74.9967 71.6438C66.8423 63.7435 41.7974 32.2979 43.92 22.9142C46.2475 12.6782 61.2941 4.31895 75.3655 0C73.12 0.360596 71.2842 0.721188 69.5714 1.21291C54.156 5.286 38.0849 14.0632 35.5198 24.9057C33.3972 34.1746 41.6745 44.6565 50.8123 53.6222C56.4834 59.2114 44.6576 55.4989 34.6675 61.4078C50.5746 54.999 81.1596 77.6919 74.9967 71.6438Z" fill="#22536B"/>
<path d="M63.13 108.146C61.2943 121.734 48.5751 132.707 34.9053 132.707C21.2355 132.707 11.5814 121.734 13.5319 108.146C15.4086 94.6071 28.095 83.6008 41.7976 83.6008C55.5002 83.6008 65.1215 94.6071 63.13 108.146ZM74.9968 99.1392C74.2593 95.7053 58.6062 62.5059 14.5563 82.4944C7.13132 89.1326 1.82894 98.1475 0.361975 108.138C-2.49 128.495 11.819 145 32.4139 145C53.0088 145 72.0138 128.487 74.8657 108.138C75.3575 105.081 75.3574 101.975 74.9886 99.131L74.9968 99.1392Z" fill="#22536B"/>
</svg>
