<svg width="33" height="33" viewBox="0 0 33 33" fill="none" xmlns="http://www.w3.org/2000/svg">
<g clip-path="url(#clip0_371_2418)">
<path fill-rule="evenodd" clip-rule="evenodd" d="M32.1207 28.2333C31.8113 29.0227 31.0967 30.132 30.0727 30.9213C29.486 31.3693 28.782 31.8067 27.822 32.0947C26.798 32.404 25.5287 32.5 23.95 32.5H9.55C7.97133 32.5 6.71267 32.3933 5.678 32.0947C4.718 31.8067 4.014 31.38 3.42733 30.9213C2.414 30.1427 1.68867 29.0227 1.37933 28.2333C0.760667 26.644 0.75 24.8413 0.75 23.7V9.3C0.75 8.15867 0.760667 6.356 1.37933 4.76667C1.68867 3.97733 2.40333 2.868 3.42733 2.07867C4.014 1.63067 4.718 1.19333 5.678 0.905333C6.71267 0.606667 7.97133 0.5 9.55 0.5H23.95C25.5287 0.5 26.7873 0.606667 27.822 0.905333C28.782 1.19333 29.486 1.62 30.0727 2.07867C31.086 2.85733 31.8113 3.97733 32.1207 4.76667C32.75 6.356 32.75 8.16933 32.75 9.3V23.7C32.75 24.8413 32.7393 26.644 32.1207 28.2333Z" fill="url(#paint0_linear_371_2418)"/>
<path d="M19.4912 19.8167C19.4486 19.4327 19.3206 19.1554 19.0646 18.8994C18.5846 18.398 17.7419 18.0674 16.7499 18.0674C15.7579 18.0674 14.9152 18.3874 14.4352 18.8994C14.1899 19.166 14.0512 19.4327 14.0086 19.8167C13.9232 20.5634 13.9766 21.2034 14.0619 22.238C14.1472 23.2194 14.3072 24.5314 14.5099 25.854C14.6592 26.8034 14.7766 27.3154 14.8832 27.6781C15.0646 28.2754 15.7152 28.7874 16.7499 28.7874C17.7846 28.7874 18.4459 28.2647 18.6166 27.6781C18.7232 27.3154 18.8406 26.8034 18.9899 25.854C19.1926 24.5207 19.3526 23.2194 19.4379 22.238C19.5339 21.2034 19.5766 20.5634 19.4912 19.8167Z" fill="white"/>
<path d="M19.374 14.3769C19.374 15.8276 18.2006 17.0009 16.75 17.0009C15.2993 17.0009 14.126 15.8276 14.126 14.3769C14.126 12.9263 15.2993 11.7529 16.75 11.7529C18.2006 11.7529 19.374 12.9369 19.374 14.3769Z" fill="white"/>
<path d="M16.7179 4.04103C10.5952 4.06237 5.58189 9.03303 5.49656 15.1557C5.43256 20.1157 8.60056 24.361 13.0272 25.9184C13.1339 25.961 13.2406 25.865 13.2299 25.7584C13.1766 25.3744 13.1126 24.9904 13.0699 24.6064C13.0486 24.4677 12.9632 24.361 12.8459 24.297C9.34722 22.7717 6.90456 19.2624 6.94722 15.1984C7.00056 9.86503 11.3526 5.5237 16.6752 5.48103C22.1259 5.43837 26.5739 9.85437 26.5739 15.2944C26.5739 19.3157 24.1419 22.7717 20.6752 24.297C20.5472 24.3504 20.4619 24.4677 20.4512 24.6064C20.3979 24.9904 20.3446 25.3744 20.2912 25.7584C20.2699 25.8757 20.3872 25.961 20.4939 25.9184C24.8779 24.3824 28.0246 20.201 28.0246 15.2944C28.0032 9.08637 22.9366 4.03037 16.7179 4.04103Z" fill="white"/>
<path d="M16.462 7.77463C12.4727 7.92397 9.27266 11.22 9.21932 15.2093C9.18732 17.8333 10.4993 20.1586 12.5153 21.5346C12.6113 21.5986 12.75 21.524 12.75 21.4066C12.718 20.948 12.718 20.5426 12.7393 20.116C12.75 19.9773 12.6967 19.8493 12.59 19.7533C11.3633 18.6013 10.6167 16.9586 10.6593 15.1453C10.7447 11.9453 13.3153 9.34263 16.5153 9.21463C19.9927 9.07597 22.8513 11.8706 22.8513 15.3053C22.8513 17.0546 22.1047 18.6333 20.9207 19.7533C20.8247 19.8493 20.7713 19.9773 20.7713 20.116C20.7927 20.532 20.782 20.9373 20.7607 21.396C20.75 21.5133 20.8887 21.5986 20.9953 21.524C22.9793 20.1693 24.2913 17.876 24.2913 15.2946C24.302 11.0493 20.75 7.60397 16.462 7.77463Z" fill="white"/>
</g>
<defs>
<linearGradient id="paint0_linear_371_2418" x1="16.75" y1="0.5" x2="16.75" y2="32.5" gradientUnits="userSpaceOnUse">
<stop stop-color="#F452FF"/>
<stop offset="1" stop-color="#832BC1"/>
</linearGradient>
<clipPath id="clip0_371_2418">
<rect width="32" height="32" fill="white" transform="translate(0.75 0.5)"/>
</clipPath>
</defs>
</svg>
