<svg width="1512" height="284" viewBox="0 0 1512 284" fill="none" xmlns="http://www.w3.org/2000/svg">
<path d="M2.20508 237.725C5.67795 244.068 9.1587 250.963 12.545 258.392C16.5927 267.294 19.9632 275.817 22.7825 283.798C25.901 275.864 29.681 267.325 34.2721 258.392C37.8395 251.458 41.5013 245.076 45.1081 239.244C30.8071 238.732 16.5061 238.228 2.20508 237.717V237.725Z" fill="#8E42E0"/>
<path d="M79.5139 239.999C83.3097 245.178 87.3102 251.301 91.1217 258.392C96.0908 267.64 99.54 276.321 101.981 283.798C104.501 276.156 107.903 267.538 112.557 258.392C116.007 251.608 119.598 245.587 123.094 240.306C108.573 240.204 94.0433 240.101 79.5218 239.991L79.5139 239.999Z" fill="#FF6666"/>
<path d="M159.264 240.786C162.823 244.8 166.611 249.57 170.297 255.165C175.912 263.689 179.778 271.803 182.472 278.658C184.543 271.851 187.638 263.776 192.323 255.165C195.583 249.176 199.017 244.037 202.269 239.708C187.937 240.07 173.596 240.432 159.264 240.794V240.786Z" fill="#FFF000"/>
<path d="M245.574 238.567C249.315 243.352 253.339 249.136 257.205 255.952C261.293 263.161 264.309 269.946 266.545 275.88C268.49 269.182 271.286 261.414 275.357 253.095C278.57 246.531 281.988 240.841 285.248 236.024C272.018 236.874 258.796 237.724 245.566 238.567H245.574Z" fill="#D5B8FA"/>
<path d="M329.805 233.844C334.16 238.747 338.751 244.414 343.295 250.899C348.823 258.77 353.225 266.317 356.737 273.133C358.572 265.326 361.045 256.7 364.431 247.531C366.975 240.644 369.692 234.348 372.417 228.666C358.21 230.389 344.004 232.121 329.805 233.844Z" fill="#8E42E0"/>
<path d="M416.225 224.258C420.73 229.098 425.431 234.608 430.132 240.841C436.267 248.971 441.26 256.81 445.307 263.972C446.906 255.165 449.261 245.351 452.749 234.86C454.805 228.681 457.026 222.959 459.301 217.71C444.945 219.898 430.581 222.078 416.217 224.266L416.225 224.258Z" fill="#FF6666"/>
<path d="M504.409 211.131C508.993 214.751 514.033 219.206 519.128 224.62C525.562 231.452 530.523 238.134 534.311 243.989C535.508 236.418 537.366 227.871 540.264 218.67C542.186 212.579 544.304 207.022 546.462 202.009C532.444 205.047 518.435 208.085 504.417 211.123L504.409 211.131Z" fill="#FFF000"/>
<path d="M595.185 191.077C599.39 194.98 603.729 199.278 608.115 203.984C614.124 210.43 619.392 216.742 623.991 222.739C624.669 215.672 625.834 207.762 627.763 199.223C629.386 192.053 631.299 185.528 633.292 179.704C620.589 183.49 607.887 187.283 595.192 191.069L595.185 191.077Z" fill="#D5B8FA"/>
<path d="M690.141 161.838C695.441 164.68 701.529 168.449 707.829 173.447C716.042 179.964 722.24 186.654 726.76 192.304C726.335 184.127 726.343 174.895 727.17 164.821C727.745 157.777 728.65 151.237 729.721 145.248C716.523 150.78 703.324 156.305 690.134 161.838H690.141Z" fill="#8E42E0"/>
<path d="M769.742 128.382C774.979 131.262 780.468 134.552 786.114 138.298C795.304 144.398 803.274 150.631 810.109 156.581C808.621 147.759 807.558 137.511 807.542 126.107C807.542 119.74 807.865 113.774 808.392 108.281C795.509 114.986 782.625 121.684 769.742 128.39V128.382Z" fill="#FF6666"/>
<path d="M849.705 85.1969C855.501 86.9441 861.84 89.1872 868.55 92.0835C876.873 95.6802 884.118 99.5761 890.269 103.33C888.198 97.7738 886.048 90.4464 884.922 81.671C883.835 73.1867 884.024 65.7886 884.575 60.0117C872.952 68.4094 861.328 76.8071 849.712 85.2048L849.705 85.1969Z" fill="#FFF000"/>
<path d="M908.184 43.6254C913.539 45.0735 919.698 47.1355 926.297 50.1341C934.652 53.9277 941.488 58.2091 946.819 62.0814C944.614 55.1712 942.527 47.2851 940.881 38.5332C939.456 30.9619 938.59 23.8943 938.086 17.48C928.124 26.1925 918.154 34.9129 908.192 43.6254H908.184Z" fill="#8E42E0"/>
<path d="M1056.28 93.5314C1050.43 95.0661 1044 97.0731 1037.2 99.7254C1028.75 103.015 1021.37 106.651 1015.09 110.169C1017.36 104.692 1019.78 97.4509 1021.22 88.7147C1022.62 80.2777 1022.7 72.8717 1022.36 67.0791C1033.67 75.8939 1044.98 84.7087 1056.29 93.5235L1056.28 93.5314Z" fill="#FFF000"/>
<path d="M999.243 43.8379C993.849 45.1444 987.643 47.0569 980.973 49.8824C972.523 53.4634 965.585 57.5639 960.151 61.3023C962.53 54.4472 964.821 46.624 966.696 37.9115C968.31 30.3796 969.365 23.3356 970.035 16.937C979.776 25.9014 989.51 34.8736 999.251 43.8379H999.243Z" fill="#D5B8FA"/>
<path d="M1485.74 219.213C1481.37 224.172 1476.81 229.815 1472.29 236.166C1466.37 244.462 1461.6 252.434 1457.75 259.706C1455.91 250.947 1453.29 241.195 1449.51 230.806C1447.28 224.683 1444.9 219.024 1442.5 213.838C1456.91 215.632 1471.33 217.419 1485.74 219.213Z" fill="#FF6666"/>
<path d="M1303.41 195.476C1299.32 199.498 1295.1 203.906 1290.84 208.73C1285.01 215.333 1279.92 221.795 1275.48 227.91C1274.61 220.866 1273.23 212.988 1271.07 204.504C1269.25 197.381 1267.17 190.912 1265.02 185.143C1277.81 188.582 1290.62 192.021 1303.41 195.461V195.476Z" fill="#D5B8FA"/>
<path d="M1396.75 211.469C1392.36 215.333 1387.57 220.048 1382.78 225.73C1376.72 232.892 1372.12 239.834 1368.66 245.878C1367.06 238.386 1364.75 229.949 1361.36 220.913C1359.11 214.94 1356.7 209.493 1354.28 204.606C1368.44 206.888 1382.6 209.179 1396.75 211.461V211.469Z" fill="#FFF000"/>
<path d="M1131.56 136.858C1126.4 139.88 1121.01 143.319 1115.47 147.215C1106.45 153.559 1098.66 160.012 1091.99 166.143C1093.23 157.289 1094.02 147.011 1093.72 135.606C1093.55 129.239 1093.06 123.289 1092.38 117.812C1105.45 124.163 1118.51 130.506 1131.57 136.858H1131.56Z" fill="#FF6666"/>
<path d="M1210.33 170.756C1205.11 173.738 1199.13 177.674 1192.97 182.845C1184.94 189.582 1178.92 196.437 1174.56 202.213C1174.75 194.028 1174.49 184.796 1173.39 174.746C1172.62 167.718 1171.54 161.201 1170.3 155.251C1183.64 160.422 1196.99 165.585 1210.33 170.756Z" fill="#8E42E0"/>
<path d="M1512 220.347C1139.97 199.278 1044.08 89.1083 952.529 0" stroke="#151515" stroke-width="3" stroke-miterlimit="10"/>
<path d="M0 237.63C594.61 266.199 841.877 115.427 953.308 0.881348" stroke="#151515" stroke-width="3" stroke-miterlimit="10"/>
</svg>
