<svg width="33" height="33" viewBox="0 0 33 33" fill="none" xmlns="http://www.w3.org/2000/svg">
<g clip-path="url(#clip0_376_2049)">
<path d="M8.21674 0.5C8.61763 0.587314 8.87953 0.923516 9.07439 1.26602C9.34746 1.74669 9.54858 2.28858 9.70679 2.83001C10.1037 4.18923 10.3356 5.64205 10.4956 7.10613C10.4961 7.11108 10.5001 7.11468 10.505 7.11468C10.5099 7.11513 10.5139 7.11153 10.5148 7.10658C10.6967 5.85224 10.9305 4.58439 11.3823 3.45471C11.4471 3.29224 11.5325 3.12346 11.6393 2.94838C12.358 1.7674 12.9787 3.02129 13.2062 3.64014C13.4105 4.19598 13.583 4.82203 13.7233 5.51828C13.9598 6.69207 14.1394 7.95767 14.2623 9.31463C14.3048 9.78405 14.3495 10.3547 14.396 11.0276C14.3964 11.033 14.4004 11.037 14.4058 11.0375C14.4112 11.0379 14.4161 11.0343 14.417 11.0289C14.6145 10.109 15.5705 6.29601 17.1396 6.97516C17.4561 7.11243 17.7484 7.45899 17.9387 7.76413C18.5448 8.73404 18.8777 9.91547 19.1392 11.0352C19.1401 11.0388 19.1437 11.0415 19.1472 11.0411C19.1513 11.0406 19.1539 11.0379 19.1544 11.0339C19.2804 8.96177 19.5021 6.87795 19.9682 4.88819C20.0809 4.40751 20.631 2.20667 21.4275 2.48616C21.7144 2.58653 21.9289 2.93803 22.0576 3.21257C22.2337 3.58838 22.3785 3.98579 22.492 4.40481C22.7312 5.2883 22.9117 6.18889 23.0337 7.10568C23.0346 7.11108 23.0391 7.11513 23.0444 7.11513C23.0498 7.11513 23.0543 7.11108 23.0547 7.10568C23.2156 5.64295 23.4525 4.17752 23.8494 2.80886C24 2.28993 24.1998 1.79035 24.4487 1.31058C24.5251 1.1634 24.6377 1.00318 24.7866 0.830352C24.9349 0.658425 25.1168 0.548158 25.3327 0.5H25.4789C25.7139 0.554909 25.9101 0.682729 26.0675 0.88391C26.2909 1.1697 26.4684 1.47485 26.6002 1.79935C27.0592 2.92723 27.3229 4.13027 27.5195 5.34681C27.52 5.35086 27.5236 5.35356 27.5276 5.35356C27.5316 5.35356 27.5352 5.35086 27.5356 5.34681C27.6232 4.79817 27.7493 4.25899 27.9142 3.73015C28.0165 3.40025 28.1819 2.97764 28.4268 2.7328C28.9613 2.19902 29.3859 3.25038 29.5025 3.60594C29.7059 4.22568 29.8601 4.88639 29.9656 5.58759C30.1126 6.5665 30.2132 7.5184 30.2677 8.44374C30.3964 10.6302 30.3562 12.7865 30.147 14.9131C30.0648 15.7502 29.9334 16.5752 29.7528 17.388C29.6853 17.6927 29.5928 18.0118 29.4753 18.3444C29.3542 18.6864 28.9394 19.6766 28.4237 19.146C28.3253 19.0447 28.2471 18.9358 28.189 18.8192C28.0018 18.4425 27.8623 18.0505 27.7707 17.6432C27.7694 17.6369 27.7636 17.6324 27.7573 17.6328C27.7506 17.6333 27.7457 17.6387 27.7448 17.645C27.6304 18.7332 27.4601 19.7882 27.2335 20.8103C27.0793 21.5057 26.8862 22.1488 26.6552 22.7389C26.4733 23.2033 26.0786 24.0355 25.5338 24.1579C24.29 24.4374 23.566 20.8441 23.4163 20.0646C23.4158 20.0623 23.4141 20.0605 23.4118 20.061C23.4091 20.061 23.4074 20.0628 23.4074 20.065C23.2737 22.0395 23.0516 24.0445 22.5913 25.9506C22.4684 26.4601 21.9682 28.3481 21.2621 28.2747C20.3808 28.1825 19.8619 25.46 19.7363 24.7633C19.7354 24.7583 19.7314 24.7552 19.7265 24.7552C19.7215 24.7552 19.7175 24.7588 19.7171 24.7637C19.5531 26.2553 19.305 27.7837 18.9269 29.1573C18.6771 30.0651 18.3405 31.0418 17.7895 31.8123C17.6134 32.0585 17.4091 32.2435 17.1767 32.3668C16.5783 32.6845 16.004 32.194 15.6907 31.7218C15.4141 31.3046 15.1843 30.8428 15.0011 30.3365C14.3575 28.5596 14.0295 26.6455 13.831 24.7574C13.831 24.7552 13.8293 24.7538 13.827 24.7534C13.8248 24.7534 13.823 24.7547 13.8225 24.757C13.7591 25.0644 13.6795 25.4244 13.5839 25.8367C13.4739 26.3106 12.8067 29.0246 11.8614 28.0803C11.5995 27.8188 11.4158 27.4012 11.2786 27.0181C11.1517 26.6626 11.0467 26.3142 10.9636 25.9735C10.4992 24.0684 10.2753 22.0579 10.1439 20.0668C10.1439 20.0632 10.1408 20.0601 10.1372 20.0601C10.1336 20.0596 10.13 20.0623 10.1296 20.0659C9.95797 20.9895 9.72691 21.9215 9.3716 22.7987C9.19596 23.2322 8.93987 23.7326 8.57205 24.0148C7.76132 24.6364 7.11908 23.3078 6.89696 22.7438C6.67037 22.1691 6.48221 21.5507 6.33339 20.8891C6.09696 19.8368 5.92043 18.7549 5.80422 17.6436C5.80378 17.6378 5.79886 17.6333 5.79305 17.6328C5.78724 17.6324 5.78188 17.636 5.78054 17.6418C5.66434 18.1117 5.50568 18.6018 5.24244 19.0091C5.19774 19.078 5.13383 19.1446 5.05115 19.2094C4.46568 19.6676 4.02545 18.2445 3.93473 17.9173C3.604 16.7268 3.43953 15.4882 3.33987 14.2388C3.16646 12.0551 3.16512 9.87586 3.3354 7.70113C3.41003 6.75283 3.52489 5.86754 3.67998 5.04616C3.79886 4.41561 3.94501 3.80037 4.19484 3.23688C4.28959 3.02354 4.44244 2.7472 4.65115 2.63153C5.4659 2.18101 5.94813 4.94624 6.01741 5.34816C6.0183 5.35221 6.02188 5.35536 6.0259 5.35491C6.02992 5.35491 6.0335 5.35176 6.03395 5.34771C6.17741 4.37871 6.39104 3.44256 6.67439 2.53927C6.82009 2.07435 7.0011 1.64948 7.21741 1.26512C7.40825 0.925767 7.67015 0.591814 8.06925 0.5L8.21674 0.5Z" fill="#A335FF"/>
<path d="M1.81672 13.8532C1.31124 13.8532 0.901855 12.1811 0.901855 10.1185C0.901855 8.0558 1.31124 6.38379 1.81672 6.38379C2.32219 6.38379 2.73158 8.0558 2.73158 10.1185C2.73158 12.1811 2.32219 13.8532 1.81672 13.8532Z" fill="#A335FF"/>
<path d="M31.7308 13.8532C31.2258 13.8532 30.8164 12.1811 30.8164 10.1185C30.8164 8.0558 31.2258 6.38379 31.7308 6.38379C32.2358 6.38379 32.6452 8.0558 32.6452 10.1185C32.6452 12.1811 32.2358 13.8532 31.7308 13.8532Z" fill="#A335FF"/>
</g>
<defs>
<clipPath id="clip0_376_2049">
<rect width="32" height="32" fill="white" transform="translate(0.75 0.5)"/>
</clipPath>
</defs>
</svg>
