<svg width="1512" height="907" viewBox="0 0 1512 907" fill="none" xmlns="http://www.w3.org/2000/svg">
<path d="M1512 879.712V907H473.573C445.92 894.322 413.025 883.722 376.344 875.817C486.986 825.797 697.946 792 940 792C1188.28 792 1403.85 827.559 1512 879.712Z" fill="#EFEFEF"/>
<path d="M473.573 907H323.327C336.789 896.07 354.635 885.631 376.344 875.817C413.025 883.722 445.92 894.322 473.573 907Z" fill="#EFEFEF"/>
<path d="M376.344 875.817C354.635 885.631 336.789 896.07 323.327 907H0V893.531C59.7156 872.588 136.384 860 220 860C276.279 860 329.41 865.703 376.344 875.817Z" fill="#EFEFEF"/>
<path d="M121.375 835.195L112.252 855.175C112.186 855.321 112.079 855.444 111.944 855.531C111.809 855.618 111.652 855.664 111.491 855.664H99.7219C99.4577 855.669 99.196 855.612 98.9573 855.499C98.7187 855.386 98.5095 855.22 98.3461 855.013C98.1076 854.703 97.9859 854.32 98.0023 853.93C98.0188 853.54 98.1723 853.168 98.436 852.88L105.777 844.842L98.436 836.804C98.1717 836.515 98.0179 836.143 98.0015 835.753C97.985 835.362 98.107 834.979 98.3461 834.669C98.5099 834.463 98.7193 834.297 98.9578 834.184C99.1964 834.072 99.4579 834.015 99.7219 834.02H120.614C120.753 834.02 120.891 834.055 121.014 834.121C121.136 834.188 121.24 834.284 121.316 834.401C121.392 834.518 121.437 834.652 121.447 834.791C121.457 834.93 121.432 835.069 121.375 835.195ZM143.49 829.491C143.162 829.185 142.728 829.018 142.279 829.025H128.946C128.625 829.025 128.31 829.117 128.041 829.29C127.771 829.463 127.556 829.71 127.424 830.001L118.523 849.491C118.465 849.618 118.44 849.757 118.45 849.896C118.46 850.036 118.505 850.17 118.58 850.287C118.656 850.404 118.76 850.501 118.883 850.568C119.006 850.634 119.144 850.669 119.284 850.669H131.367L124.078 866.63C123.98 866.83 123.924 867.047 123.912 867.27C123.9 867.492 123.932 867.714 124.008 867.923C124.084 868.132 124.201 868.324 124.352 868.488C124.503 868.651 124.686 868.783 124.89 868.875C125.093 868.967 125.313 869.018 125.536 869.024C125.76 869.03 125.982 868.991 126.19 868.911C126.398 868.83 126.588 868.708 126.748 868.553C126.908 868.398 127.036 868.213 127.123 868.008L143.849 831.378C143.993 831.065 144.035 830.716 143.971 830.378C143.906 830.04 143.738 829.73 143.49 829.491Z" fill="#EFEFEF"/>
</svg>
