<svg width="488" height="154" viewBox="0 0 488 154" fill="none" xmlns="http://www.w3.org/2000/svg">
<path d="M80.5758 129.413C74.1631 125.817 69.089 120.837 65.3378 114.47C61.5867 108.104 59.7034 100.898 59.7034 92.8354C59.7034 84.7728 61.5867 77.6908 65.3378 71.3247C69.089 64.9587 74.1631 59.978 80.5758 56.3825C86.9885 52.787 94.0238 50.9971 101.682 50.9971C109.34 50.9971 116.468 52.8026 122.85 56.3825C129.216 59.978 134.259 64.9587 137.979 71.3247C141.683 77.6908 143.551 84.8662 143.551 92.8354C143.551 100.805 141.699 108.089 137.979 114.47C134.259 120.837 129.2 125.817 122.803 129.413C116.391 133.008 109.355 134.798 101.697 134.798C94.0394 134.798 87.0041 133.008 80.5914 129.413H80.5758ZM114.694 116.805C118.445 114.579 121.371 111.389 123.488 107.248C125.605 103.108 126.648 98.2986 126.648 92.8354C126.648 87.3721 125.589 82.5781 123.488 78.469C121.371 74.3599 118.445 71.2158 114.694 69.0367C110.943 66.8576 106.6 65.7525 101.682 65.7525C96.7632 65.7525 92.4051 66.8421 88.6073 69.0367C84.8095 71.2314 81.8677 74.3754 79.7509 78.469C77.6341 82.5781 76.5912 87.3565 76.5912 92.8354C76.5912 98.3142 77.6496 103.108 79.7509 107.248C81.8677 111.389 84.8095 114.579 88.6073 116.805C92.3895 119.031 96.7477 120.152 101.682 120.152C106.616 120.152 110.943 119.031 114.694 116.805Z" fill="#151515"/>
<path d="M191.212 102.563C190.371 105.209 188.69 107.544 186.2 109.536C183.71 111.529 180.348 112.93 176.114 113.739L167.491 115.373L171.242 135.11L160.923 137.071L151.164 85.6445L170.09 82.049C174.075 81.3019 177.593 81.333 180.643 82.1891C183.71 83.0296 186.169 84.5238 188.021 86.6717C189.873 88.8197 191.087 91.4035 191.679 94.4542C192.208 97.2091 192.037 99.9019 191.196 102.563H191.212ZM180.067 102.346C181.188 100.789 181.531 98.8279 181.095 96.462C180.145 91.4501 176.877 89.4734 171.273 90.5474L163.102 92.1039L165.935 107.062L174.106 105.505C176.955 104.96 178.947 103.918 180.067 102.346Z" fill="#151515"/>
<path d="M216.115 85.8625L214.216 101.1L234.683 103.653L233.485 113.319L213.017 110.766L211.009 126.876L234.092 129.755L232.847 139.686L197.577 135.281L205.173 74.4067L240.442 78.8116L239.197 88.742L216.115 85.8625Z" fill="#151515"/>
<path d="M282.25 137.32H274.11L255.697 109.49V137.32H247.556V96.7114H255.697L274.11 124.604V96.7114H282.25V137.32Z" fill="#151515"/>
<path d="M337.754 60.7719L339.995 73.8308L306.375 79.5898L309.924 100.275L335.684 95.855L337.878 108.68L312.119 113.101L317.971 147.188L301.799 149.958L287.978 69.3014L337.785 60.7563L337.754 60.7719Z" fill="#151515"/>
<path d="M364.074 82.345L361.724 98.7503L383.748 101.894L382.254 112.292L360.229 109.148L357.755 126.487L382.596 130.036L381.071 140.713L343.108 135.297L352.463 69.7842L390.425 75.2008L388.9 85.8782L364.058 82.3295L364.074 82.345Z" fill="#151515"/>
<path d="M413.586 131.452C410.66 131.67 407.998 131.172 405.601 129.958C403.204 128.744 401.321 126.845 399.92 124.246L409.15 119.483C410.177 121.179 411.531 122.253 413.181 122.705C414.847 123.14 416.652 122.86 418.629 121.849C420.606 120.837 421.975 119.514 422.613 117.957C423.267 116.401 423.189 114.844 422.38 113.288C421.726 112.012 420.792 111.171 419.594 110.751C418.395 110.331 417.088 110.191 415.672 110.315C414.255 110.455 412.372 110.751 410.037 111.249C406.815 111.872 404.138 112.23 401.975 112.338C399.811 112.447 397.694 111.996 395.608 111.031C393.523 110.05 391.78 108.214 390.379 105.506C389.071 102.968 388.558 100.416 388.853 97.8787C389.149 95.3416 390.192 92.9602 391.966 90.7812C393.741 88.5865 396.107 86.7343 399.064 85.2089C403.5 82.9209 407.656 82.1427 411.531 82.8587C415.407 83.5746 418.489 85.8004 420.777 89.5048L411.298 94.4078C410.457 92.9758 409.197 92.073 407.531 91.7151C405.866 91.3571 404.06 91.6684 402.13 92.6645C400.449 93.5361 399.328 94.6568 398.768 96.0421C398.208 97.4273 398.348 98.9371 399.204 100.571C399.795 101.723 400.667 102.486 401.819 102.844C402.971 103.217 404.231 103.342 405.601 103.233C406.971 103.124 408.839 102.844 411.22 102.393C414.426 101.77 417.135 101.412 419.329 101.319C421.524 101.225 423.672 101.677 425.789 102.657C427.906 103.638 429.664 105.474 431.034 108.136C432.217 110.44 432.731 112.868 432.559 115.451C432.388 118.035 431.454 120.51 429.758 122.86C428.061 125.211 425.633 127.218 422.473 128.837C419.485 130.378 416.512 131.265 413.586 131.483V131.452Z" fill="#151515"/>
<path d="M456.67 76.9438L457.868 83.9168L446.381 85.878L452.576 121.988L443.938 123.467L437.743 87.3567L426.256 89.3178L425.058 82.3448L456.654 76.9282L456.67 76.9438Z" fill="#151515"/>
<path d="M451.447 153.328L445.776 131.049C445.354 129.389 446.366 127.686 448.025 127.264L450.061 126.746L455.732 149.025C456.154 150.684 455.142 152.387 453.483 152.809L451.447 153.328Z" fill="#151515"/>
<path d="M480.15 138.878L460.387 127.134C458.915 126.259 458.426 124.34 459.301 122.868L460.375 121.061L480.138 132.805C481.61 133.68 482.098 135.6 481.224 137.072L480.15 138.878Z" fill="#151515"/>
<path d="M487.232 106.826L464.953 112.497C463.294 112.919 461.591 111.907 461.168 110.248L460.65 108.211L482.929 102.541C484.588 102.119 486.291 103.131 486.714 104.79L487.232 106.826Z" fill="#151515"/>
<path d="M68.7048 0.917969L78.1817 44.2377C78.5476 45.9103 77.4786 47.5781 75.806 47.944L69.5718 49.3078L60.0949 5.98812C59.729 4.31555 60.7981 2.6477 62.4707 2.28179L68.7048 0.917969Z" fill="#151515"/>
<path d="M15.6582 25.3853L52.9911 49.3157C54.4325 50.2397 54.8559 52.175 53.9319 53.6164L50.4881 58.989L13.1552 35.0585C11.7138 34.1346 11.2904 32.1993 12.2144 30.7578L15.6582 25.3853Z" fill="#151515"/>
<path d="M0.768311 83.1519L44.088 73.6749C45.7606 73.309 47.4285 74.3781 47.7944 76.0507L49.1582 82.2849L5.83846 91.7618C4.16589 92.1277 2.49804 91.0586 2.13214 89.386L0.768311 83.1519Z" fill="#151515"/>
</svg>
