<svg width="300" height="146" viewBox="0 0 300 146" fill="none" xmlns="http://www.w3.org/2000/svg">
<rect width="300" height="145.2" fill="white"/>
<path d="M110.4 19.7998L110.4 127.2" stroke="#151515" stroke-miterlimit="10"/>
<path d="M19.3199 28.56C20.2199 29.76 21.3599 30.36 22.5599 30.36C23.9999 30.36 24.8399 29.46 24.8399 28.26C24.8399 25.44 18.5999 25.74 18.5999 21.54C18.5999 19.62 20.1599 18 22.4399 18C24.2999 18 25.6799 18.84 26.6399 20.16L25.3199 21.24C24.5399 20.1 23.5799 19.5 22.4399 19.5C21.2399 19.5 20.3999 20.34 20.3999 21.42C20.3999 24.3 26.6399 23.94 26.6399 28.14C26.6399 30.36 24.8999 31.86 22.5599 31.86C20.5799 31.86 19.1399 31.14 17.9999 29.7L19.3199 28.56Z" fill="#151515"/>
<path d="M39.1799 26.8202C39.1799 29.5802 37.0799 31.9802 34.0199 31.9802C30.9599 31.9802 28.8599 29.6402 28.8599 26.8202C28.8599 24.0002 30.9599 21.6602 34.0199 21.6602C37.0799 21.6602 39.1799 24.0002 39.1799 26.8202ZM37.4399 26.8202C37.4399 24.8402 35.9999 23.2202 34.0199 23.2202C31.9799 23.2202 30.5399 24.8402 30.5399 26.8202C30.5399 28.8002 31.9799 30.4202 34.0199 30.4202C35.9999 30.4202 37.4399 28.7402 37.4399 26.8202Z" fill="#151515"/>
<path d="M48.3598 22.0195H49.9798V27.4195C49.9798 30.2995 48.3598 31.9195 45.7198 31.9195C43.1398 31.9195 41.5198 30.2395 41.5198 27.4195V22.0195H43.1398V27.4795C43.1398 29.3395 44.1598 30.4195 45.7798 30.4195C47.3398 30.4195 48.3598 29.3395 48.3598 27.4795V22.0195Z" fill="#151515"/>
<path d="M53.76 23.5201H51.96V22.0201H53.76V19.6201H55.38V22.0201H58.68V23.5201H55.38V28.3801C55.38 29.8801 56.16 30.3001 57.3 30.3001C57.9 30.3001 58.38 30.2401 58.74 30.0601V31.5001C58.26 31.6801 57.78 31.7401 57.12 31.7401C55.02 31.7401 53.82 30.6601 53.82 28.3801V23.5201H53.76Z" fill="#151515"/>
<path d="M65.3399 31.9196C62.0999 31.9196 60.1199 29.5796 60.1199 26.7596C60.1199 23.8796 61.9799 21.5996 64.9199 21.5996C67.4999 21.5996 69.1799 23.3396 69.1799 25.7396C69.1799 26.0996 69.1199 26.5196 69.0599 26.7596H61.7399V26.8196C61.7399 28.9196 63.1799 30.4196 65.3399 30.4196C66.5399 30.4196 67.5599 29.8796 68.2199 28.9796L69.4199 29.8796C68.5799 31.1996 67.1399 31.9196 65.3399 31.9196ZM61.9799 25.5596H67.6199C67.5599 24.1796 66.5399 23.0396 64.9799 23.0396C63.4199 23.0396 62.3399 23.8796 61.9799 25.5596Z" fill="#151515"/>
<path d="M71.9399 22.0202H73.5599V23.1002C74.3399 22.2602 75.2999 21.6602 76.7399 21.6602C78.8999 21.6602 80.4599 23.1002 80.4599 25.8002V31.5602H78.8399V25.8602C78.8399 24.1802 77.8799 23.1602 76.4399 23.1602C75.0599 23.1602 74.2199 23.9402 73.5599 24.9602V31.5602H71.9399V22.0202Z" fill="#151515"/>
<path d="M90.2998 22.0195H91.9198V27.4195C91.9198 30.2995 90.2998 31.9195 87.6598 31.9195C85.0798 31.9195 83.4598 30.2395 83.4598 27.4195V22.0195H85.0798V27.4795C85.0798 29.3395 86.0998 30.4195 87.7198 30.4195C89.2798 30.4195 90.2998 29.3395 90.2998 27.4795V22.0195Z" fill="#151515"/>
<path d="M64.6198 43.0202H66.2397V44.1002C67.0797 43.2002 68.2198 42.6602 69.5998 42.6602C72.5998 42.6602 74.5198 45.0002 74.5198 47.8202C74.5198 50.6402 72.5998 52.9802 69.5998 52.9802C68.2198 52.9802 67.0797 52.4402 66.2397 51.5402V57.2402H64.6198V43.0202ZM69.4198 51.4202C71.4598 51.4202 72.8397 49.8002 72.8397 47.8202C72.8397 45.8402 71.4598 44.2202 69.4198 44.2202C68.0998 44.2202 66.9597 44.8802 66.2397 46.0202V49.6202C67.0197 50.7602 68.0998 51.4202 69.4198 51.4202Z" fill="#151515"/>
<path d="M76.4399 50.2196C76.4399 48.7196 77.5199 47.6996 79.5599 47.3396L82.7399 46.7996V46.1396C82.7399 44.8196 81.7799 44.0396 80.4599 44.0396C79.3199 44.0396 78.4199 44.5196 77.8799 45.3596L76.6799 44.4596C77.5199 43.3196 78.8399 42.5996 80.5199 42.5996C82.9199 42.5996 84.3599 44.0396 84.3599 46.1396V52.4996H82.7399V51.2996C82.0199 52.3196 80.8199 52.8596 79.5599 52.8596C77.6999 52.9196 76.4399 51.8996 76.4399 50.2196ZM79.7999 51.5996C81.0599 51.5996 82.0799 50.9396 82.7399 49.8596V48.0596L79.9199 48.5396C78.5999 48.7196 77.9999 49.3796 77.9999 50.1596C77.9999 50.9396 78.7199 51.5996 79.7999 51.5996Z" fill="#151515"/>
<path d="M87.6 43.0198H89.22V44.2198C89.94 43.3798 90.78 42.8398 91.98 42.8398C92.28 42.8398 92.58 42.8998 92.82 42.9598V44.6398C92.52 44.5798 92.28 44.5198 91.86 44.5198C90.6 44.5198 89.82 45.1798 89.22 46.1398V52.6198H87.6V43.0198Z" fill="#151515"/>
<path d="M129.36 48.54H133.02L136.44 54.36L139.86 48.54H143.52V62.76H140.64V52.62L137.46 57.84H135.42L132.24 52.62V62.7H129.36V48.54Z" fill="#010202"/>
<path d="M147.42 48.54H150.3V62.76H147.42V48.54Z" fill="#010202"/>
<path d="M154.32 48.54H158.04L164.4 58.74V48.54H167.28V62.76H163.56L157.2 52.56V62.76H154.32V48.54Z" fill="#010202"/>
<path d="M171.18 48.54H174.06V62.76H171.18V48.54Z" fill="#010202"/>
<path d="M178.86 58.7996C179.7 59.8796 180.84 60.5396 181.98 60.5396C183.12 60.5396 183.78 59.9396 183.78 58.9196C183.78 56.3996 177.3 56.9396 177.3 52.1996C177.3 49.9196 179.16 48.0596 181.86 48.0596C184.02 48.0596 185.64 49.0196 186.84 50.4596L184.74 52.3196C183.9 51.2396 183 50.5796 181.92 50.5796C180.9 50.5796 180.3 51.2396 180.3 52.0796C180.3 54.5996 186.78 53.9996 186.78 58.8596C186.72 61.4996 184.68 63.1196 182.1 63.1196C179.7 63.1196 178.08 62.2196 176.82 60.7196L178.86 58.7996Z" fill="#010202"/>
<path d="M188.22 48.54H199.86V51.18H195.48V62.76H192.6V51.12H188.22V48.54Z" fill="#010202"/>
<path d="M202.44 48.5401H210.72V51.0001H205.32V54.2401H209.88V56.7001H205.32V60.2401H210.72V62.7001H202.44V48.5401ZM202.68 44.5801H205.62L207.9 47.3401H205.26L202.68 44.5801Z" fill="#010202"/>
<path d="M214.08 48.54H218.4C221.52 48.54 223.44 50.16 223.44 52.8C223.44 54.48 222.6 55.8 221.16 56.46L225.6 62.76H222.12L218.34 57H216.84V62.76H213.96V48.54H214.08ZM216.96 51V54.54H218.58C219.78 54.54 220.5 53.88 220.5 52.74C220.5 51.66 219.78 51 218.58 51H216.96Z" fill="#010202"/>
<path d="M227.46 48.54H235.74V51H230.34V54.24H234.9V56.7H230.34V60.24H235.74V62.7H227.46V48.54Z" fill="#010202"/>
<path d="M129.36 69H134.94C139.44 69 142.5 72.24 142.5 76.08C142.5 79.92 139.44 83.16 134.94 83.16H129.36V69ZM132.24 71.64V80.64H135C137.64 80.64 139.56 78.66 139.56 76.14C139.56 73.62 137.64 71.64 135 71.64H132.24Z" fill="#010202"/>
<path d="M145.26 69H153.54V71.46H148.14V74.76H152.7V77.22H148.14V80.76H153.54V83.22H145.26V69Z" fill="#010202"/>
<path d="M162.18 69H165.06V80.58H170.46V83.22H162.18V69Z" fill="#010202"/>
<path d="M177.18 69H180.96L186.36 83.22H183.3L181.92 79.5H176.22L174.84 83.22H171.78L177.18 69ZM181.02 77.04L179.1 71.7L177.18 77.04H181.02Z" fill="#010202"/>
<path d="M203.88 78.9601L206.16 80.7001C204.84 82.4401 202.74 83.5801 200.16 83.5801C195.66 83.5801 192.6 80.1001 192.6 76.0801C192.6 72.0601 195.66 68.5801 200.16 68.5801C202.74 68.5801 204.84 69.7201 206.16 71.4601L203.88 73.2001C203.04 72.0601 201.78 71.2801 200.16 71.2801C197.46 71.2801 195.6 73.3801 195.6 76.0801C195.6 78.7801 197.52 80.8801 200.16 80.8801C201.78 80.9401 203.04 80.1001 203.88 78.9601Z" fill="#010202"/>
<path d="M216.84 69H219.72V77.64C219.72 81.36 217.5 83.58 213.96 83.58C210.42 83.58 208.2 81.36 208.2 77.64V69H211.08V77.88C211.08 79.8 212.16 80.88 213.96 80.88C215.7 80.88 216.84 79.74 216.84 77.88V69Z" fill="#010202"/>
<path d="M223.32 69H226.2V80.58H231.6V83.22H223.32V69Z" fill="#010202"/>
<path d="M231 69H242.64V71.64H238.26V83.22H235.38V71.64H231V69Z" fill="#010202"/>
<path d="M253.56 69H256.44V77.64C256.44 81.36 254.22 83.58 250.68 83.58C247.14 83.58 244.92 81.36 244.92 77.64V69H247.8V77.88C247.8 79.8 248.88 80.88 250.68 80.88C252.42 80.88 253.56 79.74 253.56 77.88V69Z" fill="#010202"/>
<path d="M260.04 69H264.36C267.48 69 269.4 70.62 269.4 73.26C269.4 74.94 268.56 76.26 267.12 76.92L271.56 83.22H268.08L264.3 77.46H262.8V83.22H259.92V69H260.04ZM262.92 71.46V75H264.54C265.74 75 266.46 74.34 266.46 73.2C266.46 72.12 265.74 71.46 264.54 71.46H262.92Z" fill="#010202"/>
<path d="M273.42 69H281.7V71.46H276.3V74.76H280.86V77.22H276.3V80.76H281.7V83.22H273.42V69Z" fill="#010202"/>
<path d="M175.56 122.459C175.92 122.459 176.28 122.759 176.1 123.479L174.3 123.899C174.66 123.059 175.14 122.459 175.56 122.459ZM176.58 125.339H176.22C175.8 125.879 175.32 126.299 174.84 126.299C174.36 126.299 174.12 125.999 174.12 125.339C174.12 125.039 174.18 124.799 174.18 124.559L177.06 123.599C177.6 122.279 176.94 121.679 176.16 121.679C174.78 121.679 173.22 123.959 173.22 125.939C173.22 126.839 173.64 127.319 174.3 127.319C175.08 127.379 175.92 126.599 176.58 125.339ZM175.98 121.139L178.02 119.219V119.039H176.94L175.68 121.139H175.98ZM169.74 122.459H170.7L169.2 126.599C169.08 126.959 169.26 127.319 169.62 127.319C170.46 127.319 171.9 126.479 172.38 125.279H172.08C171.72 125.699 170.94 126.239 170.34 126.359L171.72 122.459H173.16L173.34 121.859H171.96L172.5 120.359H171.96L171 121.859L169.8 122.039V122.459H169.74ZM168.48 122.279C168.6 121.919 168.36 121.679 168.12 121.679C167.28 121.679 166.32 122.459 165.9 123.479H166.2C166.5 123.119 166.92 122.639 167.34 122.579L165.72 126.719C165.6 127.079 165.84 127.319 166.08 127.319C166.86 127.319 167.82 126.539 168.18 125.519H167.88C167.58 125.879 167.16 126.359 166.74 126.419L168.48 122.279ZM168.78 120.179C169.14 120.179 169.44 119.879 169.44 119.519C169.44 119.159 169.14 118.859 168.78 118.859C168.42 118.859 168.12 119.159 168.12 119.519C168.06 119.879 168.36 120.179 168.78 120.179ZM159.6 126.599C159.42 127.079 159.6 127.379 160.08 127.379C160.38 127.379 160.5 127.319 160.62 127.019L161.7 124.079C162.24 123.479 163.26 122.759 163.68 122.759C163.98 122.759 163.92 122.999 163.74 123.359L162.06 126.599C161.88 126.899 162.12 127.319 162.48 127.319C163.32 127.319 164.28 126.539 164.7 125.519H164.4C164.1 125.879 163.68 126.359 163.26 126.419L164.7 123.479C164.88 123.119 165 122.759 165 122.459C165 121.979 164.7 121.679 164.22 121.679C163.5 121.679 162.78 122.519 161.88 123.479V122.699C161.88 122.159 161.7 121.679 161.22 121.679C160.92 121.679 160.62 121.979 160.32 122.339V122.459C160.86 122.399 161.1 123.239 160.74 124.079L159.6 126.599ZM159.54 122.939C159.72 122.279 159.66 121.679 159.12 121.679C158.52 121.679 158.34 122.159 157.74 123.479V122.699C157.74 122.159 157.56 121.679 157.08 121.679C156.48 121.679 155.94 122.579 155.58 123.479H155.88C156.18 123.059 156.42 122.819 156.66 122.819C156.9 122.819 157.02 123.179 156.66 124.079L155.52 126.599C155.34 127.079 155.52 127.379 156 127.379C156.3 127.379 156.42 127.319 156.54 127.019L157.62 124.079C157.92 123.719 158.22 123.359 158.58 122.999H159.54V122.939ZM153.18 122.459C153.54 122.459 153.9 122.759 153.72 123.479L151.92 123.899C152.22 123.059 152.76 122.459 153.18 122.459ZM154.14 125.339H153.78C153.36 125.879 152.88 126.299 152.4 126.299C151.92 126.299 151.68 125.999 151.68 125.339C151.68 125.039 151.74 124.799 151.74 124.559L154.62 123.599C155.16 122.279 154.5 121.679 153.72 121.679C152.34 121.679 150.78 123.959 150.78 125.939C150.78 126.839 151.2 127.319 151.86 127.319C152.7 127.379 153.48 126.599 154.14 125.339ZM147.36 122.459H148.32L146.82 126.599C146.7 126.959 146.88 127.319 147.24 127.319C148.08 127.319 149.52 126.479 150 125.279H149.7C149.34 125.699 148.56 126.239 147.96 126.359L149.34 122.459H150.78L150.96 121.859H149.58L150.12 120.359H149.58L148.62 121.859L147.42 122.039V122.459H147.36ZM142.08 125.699C142.08 124.439 143.52 122.699 144.3 122.699C144.48 122.699 144.66 122.699 144.78 122.759L143.94 124.979C143.46 125.579 142.74 126.299 142.38 126.299C142.2 126.299 142.08 126.119 142.08 125.699ZM146.46 121.439L146.04 121.379L145.56 121.859H145.44C143.04 121.859 141 124.499 141 126.479C141 127.019 141.36 127.319 141.84 127.319C142.44 127.319 143.04 126.419 143.76 125.519L143.7 125.879C143.64 126.839 143.88 127.379 144.42 127.379C145.02 127.379 145.56 126.479 145.92 125.579H145.62C145.32 125.999 145.08 126.239 144.84 126.239C144.6 126.239 144.48 125.819 144.84 124.979L146.46 121.439ZM141.42 122.939C141.6 122.279 141.54 121.679 141 121.679C140.4 121.679 140.22 122.159 139.62 123.479V122.699C139.62 122.159 139.44 121.679 138.96 121.679C138.36 121.679 137.82 122.579 137.46 123.479H137.76C138.06 123.059 138.3 122.819 138.54 122.819C138.78 122.819 138.9 123.179 138.54 124.079L137.4 126.599C137.22 127.079 137.4 127.379 137.88 127.379C138.18 127.379 138.3 127.319 138.42 127.019L139.5 124.079C139.8 123.719 140.1 123.359 140.46 122.999H141.42V122.939ZM133.44 127.139L133.56 126.839C132.18 126.599 132 126.599 132.54 125.039L133.08 123.479H134.64C135.3 123.479 135.36 123.779 135.24 124.499H135.66L136.56 121.979H136.14C135.78 122.579 135.54 122.999 134.76 122.999H133.26L134.04 120.779C134.28 120.059 134.46 119.939 135.36 119.939H136.02C136.98 119.939 137.1 120.179 137.1 121.199H137.46L137.76 119.519H132L131.88 119.819C133.02 120.059 133.08 120.179 132.6 121.619L131.46 125.039C130.92 126.479 130.74 126.599 129.42 126.839L129.3 127.139H133.44Z" fill="#010202"/>
<path d="M161.64 109.439C162 109.439 162.36 109.739 162.18 110.459L160.38 110.879C160.68 110.039 161.22 109.439 161.64 109.439ZM162.6 112.319H162.24C161.82 112.859 161.34 113.279 160.86 113.279C160.38 113.279 160.14 112.979 160.14 112.319C160.14 112.019 160.2 111.779 160.2 111.539L163.08 110.579C163.62 109.259 162.96 108.659 162.18 108.659C160.8 108.659 159.24 110.939 159.24 112.919C159.24 113.819 159.66 114.299 160.32 114.299C161.16 114.299 161.94 113.579 162.6 112.319ZM162.06 108.119L164.1 106.199V105.959H163.02L161.76 108.059H162.06V108.119ZM155.82 109.439H156.78L155.28 113.579C155.16 113.939 155.34 114.299 155.7 114.299C156.54 114.299 157.98 113.459 158.46 112.259H158.16C157.8 112.679 157.02 113.219 156.42 113.339L157.8 109.439H159.24L159.42 108.839H158.04L158.58 107.339H158.04L157.08 108.839L155.88 109.019V109.439H155.82ZM154.5 109.259C154.62 108.899 154.38 108.659 154.14 108.659C153.3 108.659 152.34 109.439 151.92 110.459H152.22C152.52 110.099 152.94 109.619 153.36 109.559L151.74 113.699C151.62 114.059 151.86 114.299 152.1 114.299C152.88 114.299 153.84 113.519 154.2 112.499H153.9C153.6 112.859 153.18 113.339 152.76 113.399L154.5 109.259ZM154.8 107.159C155.16 107.159 155.46 106.859 155.46 106.499C155.46 106.139 155.16 105.839 154.8 105.839C154.44 105.839 154.14 106.139 154.14 106.499C154.14 106.859 154.44 107.159 154.8 107.159ZM149.28 113.399L152.16 105.779L152.04 105.659L150.24 105.839V106.079L150.6 106.379C150.9 106.619 150.84 106.859 150.54 107.639L148.26 113.639C148.08 113.939 148.32 114.359 148.68 114.359C149.52 114.359 150.42 113.579 150.78 112.559H150.48C150.24 112.919 149.7 113.339 149.28 113.399ZM143.76 112.679C143.76 111.419 145.2 109.679 145.98 109.679C146.16 109.679 146.34 109.679 146.46 109.739L145.62 111.959C145.14 112.559 144.42 113.279 144.06 113.279C143.88 113.279 143.76 113.099 143.76 112.679ZM148.14 108.419L147.72 108.359L147.24 108.839H147.12C144.72 108.839 142.68 111.479 142.68 113.459C142.68 113.999 143.04 114.299 143.52 114.299C144.12 114.299 144.72 113.399 145.44 112.499L145.38 112.859C145.32 113.819 145.56 114.359 146.1 114.359C146.7 114.359 147.24 113.459 147.6 112.559H147.3C147 112.979 146.76 113.219 146.52 113.219C146.28 113.219 146.16 112.799 146.52 111.959L148.14 108.419ZM137.52 115.319C137.52 114.779 138.06 114.419 138.84 114.119C139.08 114.239 139.44 114.359 139.98 114.539C140.76 114.779 141.06 114.899 141.06 115.139C141.06 115.679 140.22 116.039 139.02 116.039C138 116.039 137.52 115.859 137.52 115.319ZM139.68 111.959C139.32 111.959 139.2 111.659 139.2 111.359C139.2 110.459 139.68 109.079 140.46 109.079C140.82 109.079 140.94 109.379 140.94 109.679C140.94 110.579 140.46 111.959 139.68 111.959ZM141.96 114.839C141.96 114.179 141.36 113.939 140.4 113.639C139.56 113.399 139.2 113.339 139.2 113.039C139.2 112.799 139.38 112.559 139.74 112.379C141.12 112.319 142.02 111.059 142.02 110.039C142.02 109.799 141.96 109.619 141.9 109.439H143.04L143.22 108.839H141.36C141.12 108.719 140.88 108.659 140.64 108.659C139.2 108.659 138.24 109.919 138.24 110.939C138.24 111.719 138.72 112.199 139.32 112.319C138.66 112.619 138.24 112.979 138.24 113.399C138.24 113.639 138.3 113.819 138.54 113.939C136.98 114.419 136.38 114.899 136.38 115.679C136.38 116.399 137.34 116.699 138.48 116.699C140.34 116.699 141.96 115.679 141.96 114.839ZM134.64 110.339C135.3 110.339 135.36 110.639 135.24 111.359H135.66L136.56 108.839H136.14C135.78 109.439 135.54 109.859 134.76 109.859H133.26L134.04 107.759C134.28 107.039 134.46 106.919 135.36 106.919H136.02C136.98 106.919 137.1 107.159 137.1 108.119H137.46L137.76 106.439H132L131.88 106.739C133.02 106.979 133.08 107.099 132.6 108.539L131.34 111.959C130.8 113.399 130.62 113.519 129.3 113.759L129.18 114.059H135.6L136.74 112.259H136.32C135.6 112.919 134.7 113.579 133.38 113.579C131.7 113.579 131.82 113.519 132.42 111.959L133.02 110.279H134.64V110.339ZM135.48 106.019L137.52 104.639V104.399H136.32L135.18 106.019H135.48Z" fill="#010202"/>
<path d="M160.98 96.4197C161.34 96.4197 161.7 96.7196 161.52 97.4396L159.72 97.8596C160.02 97.0196 160.56 96.4197 160.98 96.4197ZM161.94 99.2997H161.58C161.16 99.8397 160.68 100.26 160.2 100.26C159.72 100.26 159.48 99.9597 159.48 99.2997C159.48 98.9997 159.54 98.7596 159.54 98.5196L162.42 97.5596C162.96 96.2396 162.3 95.6396 161.52 95.6396C160.14 95.6396 158.58 97.9197 158.58 99.8997C158.58 100.8 159 101.28 159.66 101.28C160.44 101.28 161.28 100.56 161.94 99.2997ZM161.34 95.0997L163.38 93.1796V92.9396H162.3L161.04 95.0396H161.34V95.0997ZM155.4 96.4197H156.18L154.68 100.56C154.56 100.92 154.74 101.28 155.1 101.28C155.94 101.28 157.38 100.44 157.86 99.2396H157.56C157.2 99.6596 156.42 100.2 155.82 100.32L157.2 96.4197H158.64L158.82 95.8197H157.44L157.98 94.3197H157.44L156.48 95.8197L155.52 95.9997V96.4197H155.4ZM154.62 96.8997C154.8 96.2397 154.74 95.6396 154.2 95.6396C153.6 95.6396 153.42 96.1196 152.82 97.4396V96.6596C152.82 96.1196 152.64 95.6396 152.16 95.6396C151.56 95.6396 151.02 96.5396 150.66 97.4396H150.96C151.26 97.0196 151.5 96.7796 151.74 96.7796C151.98 96.7796 152.1 97.1396 151.74 98.0396L150.6 100.56C150.42 101.04 150.6 101.34 151.08 101.34C151.38 101.34 151.5 101.28 151.62 100.98L152.7 98.0396C153 97.6796 153.3 97.3196 153.66 96.9596H154.62V96.8997ZM148.26 96.4197C148.62 96.4197 148.98 96.7196 148.8 97.4396L147 97.8596C147.3 97.0196 147.84 96.4197 148.26 96.4197ZM149.22 99.2997H148.86C148.44 99.8397 147.96 100.26 147.48 100.26C147 100.26 146.76 99.9597 146.76 99.2997C146.76 98.9997 146.82 98.7596 146.82 98.5196L149.7 97.5596C150.24 96.2396 149.58 95.6396 148.8 95.6396C147.42 95.6396 145.86 97.9197 145.86 99.8997C145.86 100.8 146.28 101.28 146.94 101.28C147.78 101.28 148.56 100.56 149.22 99.2997ZM142.14 100.44C141.84 100.44 141.48 100.2 141.48 99.9596C141.48 99.8996 141.6 99.5396 141.78 99.1796L142.26 97.9197C142.74 97.3197 143.52 96.7196 143.94 96.7196C144.18 96.7196 144.42 96.8996 144.42 97.2596C144.36 98.3996 143.34 100.44 142.14 100.44ZM145.44 96.7796C145.44 95.9396 145.14 95.6396 144.54 95.6396C143.82 95.6396 143.1 96.4197 142.44 97.3197L144.18 92.7596L144.06 92.6396L142.26 92.8197V93.0596L142.62 93.3596C142.92 93.5996 142.86 93.8997 142.56 94.6197L140.7 99.4796C140.58 99.8396 140.4 100.26 140.4 100.38C140.4 100.86 141.06 101.34 141.72 101.34C143.1 101.28 145.44 98.7596 145.44 96.7796ZM139.8 96.2396C139.92 95.8796 139.68 95.6396 139.44 95.6396C138.6 95.6396 137.64 96.4196 137.22 97.4396H137.52C137.82 97.0796 138.24 96.5996 138.66 96.5396L137.04 100.68C136.92 101.04 137.16 101.28 137.4 101.28C138.18 101.28 139.14 100.5 139.5 99.4796H139.26C138.96 99.8396 138.54 100.32 138.12 100.38L139.8 96.2396ZM140.1 94.1396C140.46 94.1396 140.76 93.8396 140.76 93.4796C140.76 93.1196 140.46 92.8197 140.1 92.8197C139.74 92.8197 139.44 93.1196 139.44 93.4796C139.38 93.8396 139.68 94.1396 140.1 94.1396ZM135.9 93.4796H132.06L131.94 93.7796C133.08 94.0196 133.14 94.1396 132.66 95.5796L131.46 98.9997C130.92 100.44 130.74 100.56 129.42 100.8L129.3 101.1H135.06L136.32 98.8796H135.9C135.18 99.6596 134.34 100.62 133.08 100.62C132.12 100.62 132 100.44 132.54 98.9997L133.74 95.5796C134.28 94.1396 134.46 94.0196 135.78 93.7796L135.9 93.4796Z" fill="#010202"/>
<path d="M150.72 36.8398C150.9 36.6598 151.14 36.4198 151.32 36.1798C151.68 35.7598 152.1 35.3398 152.52 34.9798C152.64 34.8598 152.76 34.7398 152.88 34.6798C152.94 34.6198 152.94 34.5598 152.94 34.5598C152.76 34.6198 152.64 34.7998 152.46 34.8598C152.4 34.8598 152.4 34.7998 152.4 34.7998C152.52 34.6798 152.64 34.6198 152.76 34.4998C152.7 34.4998 152.7 34.4398 152.7 34.4398C152.22 34.3798 151.86 34.6798 151.56 34.9798C151.5 35.0398 151.44 34.9198 151.38 34.9198C150.84 35.0998 150.48 35.5798 149.94 35.7598C149.94 35.6998 149.94 35.6998 149.94 35.6998C149.7 35.7598 149.52 35.8798 149.28 35.9398C148.98 35.9998 148.68 35.9998 148.38 35.9998C147.96 36.0598 147.54 36.1198 147.06 36.2398C147.06 36.2398 147.06 36.2398 147 36.2398C146.76 36.2998 146.52 36.3598 146.34 36.4798L146.28 36.5398C146.22 36.5998 146.16 36.7198 146.04 36.7798C145.8 36.8998 145.62 37.0798 145.44 37.2598H145.38C145.2 37.4398 145.02 37.6198 144.78 37.7998C144.78 37.7998 144.72 37.7998 144.66 37.7998C144.66 37.7998 144.66 37.7998 144.66 37.7398C144.72 37.6798 144.72 37.6198 144.78 37.5598C144.84 37.4998 144.84 37.4398 144.9 37.3798C144.96 37.3198 145.02 37.2598 145.08 37.1398V37.0798H145.02C145.2 36.8998 145.38 36.7798 145.62 36.6598C145.62 36.6598 145.56 36.6598 145.56 36.5998C145.56 36.5398 145.62 36.5398 145.62 36.4798C145.62 36.4798 145.62 36.4798 145.62 36.4198C145.56 36.4798 145.5 36.4798 145.44 36.5398C145.38 36.5998 145.26 36.7798 145.14 36.7798H145.08C145.08 36.7798 145.08 36.7798 145.02 36.7798C145.02 36.7798 145.02 36.7798 145.02 36.7198C145.02 36.7198 145.02 36.7198 145.02 36.6598V36.5998C145.02 36.5998 145.02 36.5998 145.02 36.5398L145.08 36.4798C145.08 36.4798 145.08 36.4798 145.08 36.4198C145.08 36.4198 145.08 36.3598 145.14 36.3598V36.2998C145.2 36.2398 145.26 36.1198 145.38 36.0598C145.5 35.9998 145.68 35.8798 145.8 35.8198L145.86 35.7598C145.68 35.8198 145.5 35.9398 145.32 36.0598C145.32 36.0598 145.26 36.0598 145.26 36.1198C145.26 36.1198 145.2 36.1198 145.2 36.0598C145.26 35.9998 145.32 35.9398 145.44 35.8798C145.5 35.8798 145.5 35.8798 145.5 35.9398C146.64 35.0398 148.2 35.2798 149.52 34.7998C149.64 34.7398 149.76 34.6798 149.82 34.5598C150 34.4998 150.12 34.3198 150.36 34.1998C150.66 33.9598 150.84 33.7198 150.96 33.3598C150.96 33.2998 150.9 33.2998 150.9 33.2998C150.42 33.7798 149.88 34.1998 149.34 34.4998C148.62 34.9198 147.78 34.7998 147 34.9198C147.06 34.8598 147.12 34.8598 147.18 34.8598C147.18 34.7398 147.24 34.7398 147.3 34.6198C147.36 34.6198 147.36 34.6198 147.42 34.6198C147.48 34.6198 147.48 34.5598 147.48 34.5598C147.54 34.5598 147.66 34.4998 147.6 34.4998C147.48 34.3798 147.3 34.6198 147.12 34.4998C147.18 34.4398 147.18 34.3198 147.24 34.2598C147.3 34.2598 147.36 34.2598 147.36 34.2598C147.36 34.1998 147.42 34.1398 147.42 34.1398C147.96 33.8398 148.44 33.5398 148.98 33.2998C148.86 33.2998 148.8 33.4198 148.68 33.3598C148.74 33.3598 148.68 33.2398 148.74 33.2398C149.16 33.1198 149.46 32.9398 149.82 32.7598C149.7 32.7598 149.58 32.8798 149.4 32.7598C149.46 32.6998 149.52 32.6398 149.64 32.6398C149.64 32.5798 149.64 32.5798 149.64 32.5198C149.64 32.4598 149.7 32.4598 149.7 32.4598C149.64 32.4598 149.64 32.3998 149.64 32.3998C149.7 32.3398 149.76 32.3398 149.88 32.2798C149.82 32.2798 149.76 32.2798 149.76 32.2198C149.88 32.0998 150.06 32.0398 150.24 31.9798C150.18 31.9198 150.12 31.9798 150.12 31.9198C150.12 31.8598 150.18 31.8598 150.18 31.8598C150.12 31.8598 150.12 31.8598 150.12 31.8598C150.06 31.7998 150.06 31.7398 150.06 31.7398C150.3 31.4998 150.3 31.1398 150.36 30.8998C150.3 30.8998 150.3 30.8998 150.3 30.8398C149.94 31.2598 149.4 31.3798 148.86 31.4998C148.8 31.4998 148.74 31.4998 148.68 31.4998C148.5 31.5598 148.26 31.5598 148.08 31.4398C147.96 31.3798 147.84 31.2598 147.72 31.1398C147.42 30.9598 147.12 30.8398 146.82 30.7198C145.92 30.4198 145.02 30.2998 144.06 30.2998C144.48 30.0598 144.9 30.0598 145.32 29.9398C145.92 29.7598 146.52 29.5198 147.12 29.5798C147 29.5198 146.88 29.5798 146.76 29.5798C146.28 29.5198 145.74 29.6998 145.2 29.8198C144.84 29.8798 144.54 30.0598 144.18 30.1198C143.94 30.1798 143.88 30.4198 143.58 30.3598C143.58 30.3598 143.58 30.2998 143.58 30.2398C143.94 29.8198 144.36 29.3998 144.96 29.3398C145.62 29.2198 146.22 29.3398 146.82 29.3998C147.3 29.4598 147.72 29.5198 148.2 29.6398C148.38 29.6398 148.44 29.9398 148.56 29.9398C148.8 29.9998 148.98 29.9398 149.22 30.0598C149.22 29.9998 149.16 29.9398 149.22 29.8198C149.34 29.6998 149.52 29.8798 149.7 29.7598C150 29.5798 149.46 29.2798 149.28 29.0398C149.28 28.9798 149.34 28.9798 149.34 28.9798C149.64 29.2198 149.82 29.5198 150.18 29.6998C150.36 29.7598 150.78 29.8798 150.72 29.6398C150.54 29.2198 150.18 28.9198 149.88 28.5598C149.88 28.4998 149.88 28.4398 149.88 28.4398C149.82 28.4398 149.82 28.3798 149.76 28.3798C149.76 28.3198 149.76 28.2598 149.76 28.2598C149.64 28.1998 149.64 28.0198 149.58 27.9598C149.46 27.7798 149.52 27.5398 149.46 27.2998C149.4 27.0598 149.34 26.8798 149.34 26.6998C149.22 26.0998 149.1 25.5598 149.04 24.9598C148.98 24.2998 149.46 23.7598 149.76 23.1598C150 22.7398 150.3 22.3198 150.78 22.0198C150.9 21.5998 151.2 21.2398 151.44 20.8798C151.74 20.5198 152.22 20.3398 152.52 20.1598C153 19.9198 153.48 19.7998 153.48 19.7998H129V38.6398H146.34C147 38.1598 147.72 37.9198 148.62 37.4398C149.4 37.6798 150.42 37.1998 150.72 36.8398ZM145.26 34.3198C145.2 34.3198 145.02 34.3798 145.08 34.2598C145.14 34.0798 145.38 34.0798 145.5 34.0198C145.56 33.9598 145.68 33.8998 145.74 33.9598C145.8 34.0798 145.92 34.0198 145.98 34.0798C145.8 34.3198 145.5 34.1998 145.26 34.3198ZM139.8 33.5398L139.74 33.4798C140.22 32.8798 140.58 32.2798 140.88 31.6798C141.36 31.4398 141.72 31.0798 142.08 30.6598C142.68 29.9998 143.34 29.4598 144.06 29.0998C144.36 28.9798 144.72 29.0398 144.96 29.1598C144.84 29.2798 144.66 29.2798 144.54 29.3998C144.48 29.3998 144.48 29.3998 144.42 29.3398C144.48 29.2798 144.48 29.2798 144.48 29.2198C144.12 29.6398 143.64 29.8198 143.34 30.2398C143.1 30.5998 142.98 31.0798 142.5 31.1398C142.38 31.1998 142.56 31.0198 142.44 31.0798C141.42 31.7398 140.64 32.5798 139.8 33.5398ZM142.74 31.1398C142.68 31.1998 142.68 31.1998 142.62 31.2598C142.56 31.3198 142.56 31.3798 142.5 31.3798C142.44 31.3798 142.44 31.3798 142.44 31.3198C142.5 31.1998 142.56 31.0198 142.74 31.0198C142.74 31.0798 142.74 31.1398 142.74 31.1398ZM144.42 36.4798C144.42 36.5398 144.36 36.5398 144.36 36.5998C144.42 36.5998 144.42 36.5998 144.42 36.6598C144.36 36.7198 144.24 36.8398 144.12 36.8398C144.12 36.8398 144.12 36.8398 144.06 36.8398C144 36.8998 144 36.8998 143.94 36.9598C143.88 37.0198 143.7 36.9598 143.76 36.8998C143.88 36.8398 143.94 36.7198 144 36.6598C144.06 36.5998 144.12 36.5398 144.12 36.5398L144.18 36.4798C144.24 36.4798 144.42 36.4198 144.42 36.4798ZM143.76 36.2398C143.64 36.3598 143.46 36.4198 143.34 36.5398C143.16 36.5998 143.04 36.7198 142.86 36.7798H142.8C142.68 36.8398 142.56 36.9598 142.44 37.0798L142.38 37.1398L142.32 37.1998L142.26 37.2598C142.26 37.2598 142.26 37.3198 142.2 37.3198H142.14C142.14 37.3198 142.08 37.3198 142.08 37.3798C142.08 37.3798 142.02 37.3798 142.02 37.4398C141.96 37.4998 141.96 37.4998 141.9 37.5598C141.84 37.6198 141.78 37.6798 141.72 37.7998C141.72 37.7998 141.72 37.7998 141.72 37.8598C141.72 37.8598 141.72 37.7998 141.66 37.7998C141.72 37.7398 141.72 37.7398 141.78 37.6798C141.78 37.6798 141.78 37.6198 141.84 37.6198L141.9 37.5598C141.96 37.4998 141.96 37.4398 142.02 37.3798L142.08 37.3198C142.08 37.3198 142.08 37.2598 142.14 37.2598C142.14 37.2598 142.14 37.1998 142.2 37.1998C142.2 37.1998 142.2 37.1998 142.2 37.1398V37.0798C142.26 37.0198 142.26 36.9598 142.32 36.8998C142.26 36.9598 142.26 36.9598 142.2 37.0198C142.14 37.0198 142.08 37.0198 142.14 36.9598C142.2 36.9598 142.2 36.8998 142.2 36.8998C142.26 36.8398 142.32 36.7798 142.38 36.7198C142.44 36.7198 142.44 36.6598 142.5 36.6598C142.5 36.5998 142.56 36.5998 142.56 36.5998C142.92 36.2998 143.46 36.2998 143.94 36.0598C144.12 35.9998 144.36 36.1198 144.54 36.0598C144.66 36.0598 144.78 36.0598 144.84 36.1198C144.36 35.8198 144.06 35.9998 143.76 36.2398ZM144.54 33.7198C144.48 33.6598 144.66 33.7198 144.66 33.6598C144.54 33.6598 144.48 33.6598 144.36 33.6598C144.3 33.6598 144.3 33.5998 144.3 33.5998C144.12 33.6598 143.88 33.7198 143.7 33.7198C143.46 33.7798 143.22 33.9598 142.98 34.0198C142.56 34.1398 142.26 34.4998 141.84 34.6198C141.78 34.6198 141.78 34.5598 141.78 34.5598C141.84 34.4398 141.96 34.4398 142.02 34.3198C142.02 34.2598 142.02 34.2598 141.96 34.2598C142.26 33.8398 142.62 33.6598 142.98 33.3598C142.98 33.2998 142.98 33.2998 142.98 33.2398C143.1 33.1198 143.28 32.9998 143.34 32.8198C143.4 32.6998 143.52 32.5798 143.7 32.5198C143.64 32.4598 143.58 32.4598 143.58 32.3998C143.46 32.3998 143.28 32.4598 143.16 32.3398C143.22 32.2798 143.28 32.2198 143.4 32.2198C143.34 32.2198 143.34 32.2198 143.34 32.1598C143.28 32.0998 143.4 31.9798 143.52 31.9798C143.64 31.9198 143.82 31.9198 143.94 31.8598C143.7 31.7998 143.4 31.9198 143.16 31.7998C143.34 31.3198 143.64 30.9598 144.06 30.7198C144.12 30.7198 144.18 30.7198 144.18 30.7798C144.18 30.9598 144.06 31.0798 143.88 31.1398C144.18 31.1998 144.48 31.1998 144.72 31.3798C144.66 31.4398 144.6 31.4398 144.6 31.4398C144.78 31.5598 145.02 31.4998 145.2 31.6198C145.08 31.7398 144.96 31.6198 144.9 31.6198C145.98 31.9198 147.18 32.2198 148.08 32.8798C147.3 33.2998 146.46 33.4798 145.62 33.5998C145.5 33.5998 145.44 33.5998 145.32 33.5398C145.32 33.5998 145.32 33.6598 145.26 33.6598C145.14 33.6598 145.02 33.6598 144.9 33.7198C144.84 33.7798 144.6 33.8398 144.54 33.7198Z" fill="#293273"/>
<path d="M181.2 20.2197H160.86C160.86 20.2197 160.92 20.2197 161.04 20.2797C161.22 20.3397 161.4 20.4597 161.58 20.5797C161.82 20.6997 162.12 20.8797 162.24 21.1797C162.3 21.2997 162.42 21.4797 162.36 21.6597C162.3 21.8397 162.24 22.1397 162.06 22.1997C161.82 22.3197 161.58 22.3197 161.34 22.2597C161.22 22.2597 161.04 22.1997 160.92 22.1997C161.46 22.4397 161.94 22.6797 162.3 23.1597C162.36 23.2197 162.48 23.2797 162.6 23.2797C162.66 23.2797 162.66 23.3397 162.66 23.3997C162.6 23.4597 162.54 23.5197 162.54 23.6397C162.6 23.6397 162.6 23.6397 162.66 23.6397C162.84 23.5797 162.78 23.2197 163.08 23.3397C163.26 23.4597 163.32 23.6997 163.2 23.8797C163.08 23.9997 162.9 24.1197 162.78 24.2397C162.72 24.2997 162.72 24.4197 162.78 24.4797C162.9 24.5997 162.9 24.7797 162.96 24.8997C163.08 25.1397 163.08 25.4397 163.2 25.6797C163.32 26.2197 163.5 26.7597 163.44 27.2997C163.44 27.5997 163.32 27.8397 163.38 28.1397C163.44 28.4397 163.62 28.6197 163.8 28.8597C163.92 29.0997 164.1 29.2197 164.22 29.4597C164.46 29.8197 164.82 30.1797 164.64 30.5997C164.52 30.8397 164.16 30.8397 163.92 30.9597C163.68 31.1397 163.86 31.4397 163.98 31.6197C164.16 31.9197 163.74 32.1597 163.5 32.2797C163.56 32.3997 163.74 32.3397 163.74 32.3997C163.8 32.5797 163.98 32.6997 163.86 32.8797C163.74 33.1197 163.26 33.1797 163.5 33.5397C163.62 33.7797 163.56 34.0797 163.44 34.3197C163.32 34.6197 163.02 34.7997 162.78 34.8597C162.54 34.9197 162.3 34.9197 162.12 34.9197C162.06 34.8597 162 34.8597 161.88 34.8597C161.28 34.7997 160.68 34.6197 160.08 34.6197C159.9 34.6797 159.72 34.6797 159.6 34.7397C159.42 34.8597 159.3 34.9797 159.18 35.0997L159.12 35.1597L159.06 35.2197C159.06 35.2197 159.06 35.2197 159 35.2797C158.88 35.3997 158.82 35.5197 158.7 35.6997V35.7597C158.58 35.9997 158.52 36.1797 158.46 36.4197C158.22 37.2597 158.34 37.9197 158.52 38.0997C158.58 38.1597 159.72 38.5197 160.5 38.8197C160.86 38.9997 161.1 39.1197 161.34 39.2397H181.26V20.2197H181.2Z" fill="#E10814"/>
<path d="M162.12 27.1202C162.24 27.1802 162.48 27.1802 162.48 27.2402C162.42 27.5402 162 27.6002 161.76 27.9002H161.64C161.52 27.9602 161.58 28.1402 161.46 28.1402C161.34 28.0802 161.22 28.1402 161.16 28.2002C161.28 28.3202 161.46 28.4402 161.7 28.4402C161.76 28.4402 161.82 28.5002 161.82 28.5602C161.82 28.5602 161.88 28.5602 161.88 28.5002C161.94 28.5002 161.94 28.5002 161.94 28.5602V28.6802C161.82 28.8002 161.64 28.7402 161.52 28.8002C161.82 28.8602 162.12 28.8602 162.36 28.8002C162.6 28.7402 162.36 28.3802 162.48 28.2002C162.42 28.2002 162.48 28.0802 162.42 28.0802C162.48 28.0202 162.54 27.9002 162.66 27.8402C162.72 27.8402 162.84 27.7802 162.9 27.7202C162.9 27.6602 162.78 27.6002 162.78 27.5402C163.02 27.4202 163.2 27.1802 163.08 26.9402C163.02 26.8202 162.78 26.8202 162.6 26.7602C162.42 26.7002 162.18 26.7602 162 26.8202C161.82 26.8202 161.64 26.9402 161.46 26.9402C161.22 27.0002 160.98 27.1802 160.8 27.3002C161.04 27.1802 161.28 27.1802 161.58 27.0602C161.7 27.1202 161.88 27.0602 162.12 27.1202Z" fill="#9D9D9C"/>
</svg>
