<svg width="1512" height="27" viewBox="0 0 1512 27" fill="none" xmlns="http://www.w3.org/2000/svg">
<g clip-path="url(#clip0_457_5563)">
<rect width="1512" height="27" fill="#67B25B"/>
<path d="M1512 20.5932V27H473.573C445.92 24.0234 413.025 21.5347 376.344 19.6788C486.986 7.93496 697.946 0 940 0C1188.28 0 1403.85 8.34873 1512 20.5932Z" fill="#FAFAFA"/>
<path d="M473.573 27H323.327C336.789 24.4338 354.635 21.983 376.344 19.6788C413.025 21.5347 445.92 24.0234 473.573 27Z" fill="#FAFAFA"/>
<path d="M376.344 19.6788C354.635 21.983 336.789 24.4338 323.327 27H0V23.8377C59.7156 18.9207 136.384 15.9652 220 15.9652C276.279 15.9652 329.41 17.3041 376.344 19.6788Z" fill="#FAFAFA"/>
</g>
<defs>
<clipPath id="clip0_457_5563">
<rect width="1512" height="27" fill="white"/>
</clipPath>
</defs>
</svg>
