<svg width="160" height="50" viewBox="0 0 160 50" fill="none" xmlns="http://www.w3.org/2000/svg">
<path d="M26.3865 42.1545C24.2828 40.975 22.6181 39.3409 21.3875 37.2525C20.1569 35.164 19.5391 32.7998 19.5391 30.1548C19.5391 27.5098 20.1569 25.1864 21.3875 23.098C22.6181 21.0095 24.2828 19.3755 26.3865 18.196C28.4903 17.0164 30.7983 16.4292 33.3106 16.4292C35.8229 16.4292 38.1616 17.0215 40.2551 18.196C42.3436 19.3755 43.998 21.0095 45.2184 23.098C46.4337 25.1864 47.0464 27.5404 47.0464 30.1548C47.0464 32.7692 46.4388 35.1589 45.2184 37.2525C43.998 39.3409 42.3385 40.975 40.2398 42.1545C38.136 43.334 35.828 43.9213 33.3157 43.9213C30.8035 43.9213 28.4954 43.334 26.3917 42.1545H26.3865ZM37.5794 38.0184C38.8101 37.2882 39.77 36.2415 40.4645 34.8832C41.1589 33.5249 41.5011 31.9471 41.5011 30.1548C41.5011 28.3625 41.1538 26.7898 40.4645 25.4417C39.77 24.0937 38.8101 23.0622 37.5794 22.3473C36.3488 21.6325 34.9242 21.2699 33.3106 21.2699C31.697 21.2699 30.2673 21.6274 29.0214 22.3473C27.7754 23.0673 26.8104 24.0988 26.1159 25.4417C25.4215 26.7898 25.0793 28.3574 25.0793 30.1548C25.0793 31.9522 25.4266 33.5249 26.1159 34.8832C26.8104 36.2415 27.7754 37.2882 29.0214 38.0184C30.2622 38.7486 31.6919 39.1163 33.3106 39.1163C34.9293 39.1163 36.3488 38.7486 37.5794 38.0184Z" fill="url(#paint0_linear_646_1112)"/>
<path d="M62.6823 33.3463C62.4066 34.2143 61.8551 34.9803 61.0381 35.6339C60.2211 36.2875 59.1182 36.747 57.7293 37.0125L54.9004 37.5487L56.131 44.0234L52.7456 44.6668L49.5439 27.7958L55.7531 26.6162C57.0603 26.3711 58.2144 26.3813 59.2152 26.6622C60.2211 26.9379 61.0279 27.4281 61.6355 28.1328C62.2432 28.8374 62.6415 29.6851 62.8355 30.6859C63.0091 31.5897 62.953 32.4731 62.6772 33.3463H62.6823ZM59.0262 33.2748C59.3939 32.7642 59.5062 32.1208 59.3633 31.3446C59.0518 29.7004 57.9795 29.0519 56.1412 29.4042L53.4604 29.9149L54.3898 34.822L57.0706 34.3113C58.005 34.1326 58.6586 33.7905 59.0262 33.2748Z" fill="#FBEA23"/>
<path d="M70.8516 27.8671L70.2286 32.8661L76.9433 33.7035L76.5501 36.8745L69.8354 36.0371L69.1767 41.3221L76.7493 42.2667L76.3408 45.5245L64.77 44.0794L67.2619 24.1089L78.8326 25.554L78.4241 28.8117L70.8516 27.8671Z" fill="#EC6568"/>
<path d="M92.5483 44.7485H89.8778L83.8371 35.6185V44.7485H81.1665V31.4263H83.8371L89.8778 40.5767V31.4263H92.5483V44.7485Z" fill="#937CB7"/>
<path d="M110.757 19.636L111.492 23.9201L100.463 25.8094L101.627 32.5956L110.078 31.1454L110.798 35.353L102.347 36.8032L104.267 47.9859L98.9616 48.8948L94.4272 22.4342L110.767 19.6309L110.757 19.636Z" fill="url(#paint1_linear_646_1112)"/>
<path d="M119.392 26.7133L118.621 32.0953L125.846 33.1267L125.356 36.5377L118.131 35.5062L117.319 41.1946L125.468 42.3588L124.968 45.8617L112.514 44.0847L115.583 22.5925L128.037 24.3695L127.536 27.8724L119.387 26.7082L119.392 26.7133Z" fill="#937CB7"/>
<path d="M135.635 42.8234C134.675 42.8949 133.801 42.7315 133.015 42.3332C132.229 41.9349 131.611 41.312 131.151 40.4592L134.179 38.8967C134.516 39.4533 134.961 39.8056 135.502 39.9537C136.048 40.0967 136.641 40.0048 137.289 39.6729C137.938 39.341 138.387 38.9069 138.596 38.3963C138.811 37.8857 138.785 37.3751 138.52 36.8644C138.305 36.4457 137.999 36.17 137.606 36.0321C137.212 35.8942 136.783 35.8483 136.319 35.8891C135.854 35.9351 135.236 36.0321 134.47 36.1955C133.413 36.3998 132.535 36.5172 131.825 36.5529C131.116 36.5887 130.421 36.4406 129.737 36.124C129.053 35.8023 128.481 35.1998 128.021 34.3113C127.592 33.479 127.424 32.6416 127.521 31.8092C127.618 30.9769 127.96 30.1957 128.542 29.4808C129.124 28.7608 129.9 28.1532 130.87 27.6527C132.326 26.9021 133.689 26.6468 134.961 26.8817C136.232 27.1166 137.243 27.8468 137.994 29.0621L134.884 30.6705C134.608 30.2008 134.195 29.9046 133.648 29.7872C133.102 29.6697 132.51 29.7718 131.876 30.0986C131.325 30.3846 130.957 30.7522 130.773 31.2067C130.59 31.6612 130.636 32.1565 130.916 32.6926C131.11 33.0705 131.396 33.3207 131.774 33.4381C132.152 33.5607 132.566 33.6015 133.015 33.5658C133.464 33.53 134.077 33.4381 134.858 33.2901C135.91 33.0858 136.799 32.9684 137.519 32.9377C138.239 32.9071 138.943 33.0552 139.638 33.3769C140.332 33.6986 140.909 34.3011 141.359 35.1743C141.747 35.93 141.915 36.7266 141.859 37.5742C141.803 38.4218 141.497 39.2337 140.94 40.0048C140.383 40.7758 139.587 41.4345 138.55 41.9656C137.57 42.4711 136.595 42.7621 135.635 42.8336V42.8234Z" fill="#FBEA23"/>
<path d="M149.769 24.9411L150.162 27.2287L146.394 27.8721L148.426 39.7186L145.592 40.2037L143.56 28.3572L139.792 29.0006L139.398 26.713L149.764 24.936L149.769 24.9411Z" fill="#EC6568"/>
<path d="M148.056 50L146.195 42.6911C146.057 42.1468 146.389 41.5881 146.933 41.4495L147.601 41.2795L149.462 48.5884C149.6 49.1327 149.268 49.6914 148.724 49.83L148.056 50Z" fill="url(#paint2_linear_646_1112)"/>
<path d="M157.472 45.2595L150.989 41.4068C150.506 41.1198 150.345 40.49 150.632 40.0071L150.984 39.4145L157.468 43.2673C157.951 43.5542 158.111 44.184 157.824 44.6669L157.472 45.2595Z" fill="url(#paint3_linear_646_1112)"/>
<path d="M159.795 34.7446L152.486 36.6049C151.942 36.7435 151.383 36.4115 151.245 35.8671L151.075 35.1991L158.384 33.3388C158.928 33.2002 159.487 33.5322 159.625 34.0766L159.795 34.7446Z" fill="url(#paint4_linear_646_1112)"/>
<path d="M22.4922 0L25.6012 14.2116C25.7213 14.7603 25.3705 15.3075 24.8218 15.4275L22.7766 15.8749L19.6676 1.66333C19.5475 1.11462 19.8983 0.567461 20.447 0.447421L22.4922 0Z" fill="url(#paint5_linear_646_1112)"/>
<path d="M5.08936 8.02686L17.3369 15.8776C17.8098 16.1807 17.9487 16.8156 17.6456 17.2885L16.5158 19.051L4.26821 11.2003C3.79534 10.8972 3.65644 10.2623 3.95956 9.7894L5.08936 8.02686Z" fill="url(#paint6_linear_646_1112)"/>
<path d="M0.20459 26.978L14.4162 23.869C14.9649 23.749 15.5121 24.0997 15.6321 24.6484L16.0795 26.6936L1.86792 29.8026C1.31921 29.9227 0.772051 29.5719 0.652011 29.0232L0.20459 26.978Z" fill="url(#paint7_linear_646_1112)"/>
<defs>
<linearGradient id="paint0_linear_646_1112" x1="19.5391" y1="30.1701" x2="47.0413" y2="30.1701" gradientUnits="userSpaceOnUse">
<stop stop-color="#937CB7"/>
<stop offset="1" stop-color="#EC6568"/>
</linearGradient>
<linearGradient id="paint1_linear_646_1112" x1="102.955" y1="48.8999" x2="102.955" y2="19.636" gradientUnits="userSpaceOnUse">
<stop stop-color="#937CB7"/>
<stop offset="1" stop-color="#EC6568"/>
</linearGradient>
<linearGradient id="paint2_linear_646_1112" x1="148.888" y1="49.7934" x2="146.776" y2="41.4948" gradientUnits="userSpaceOnUse">
<stop stop-color="#FBEA23"/>
<stop offset="1" stop-color="#EC6568"/>
</linearGradient>
<linearGradient id="paint3_linear_646_1112" x1="157.908" y1="44.5264" x2="150.546" y2="40.152" gradientUnits="userSpaceOnUse">
<stop stop-color="#FBEA23"/>
<stop offset="1" stop-color="#EC6568"/>
</linearGradient>
<linearGradient id="paint4_linear_646_1112" x1="159.59" y1="33.917" x2="151.291" y2="36.0292" gradientUnits="userSpaceOnUse">
<stop stop-color="#FBEA23"/>
<stop offset="1" stop-color="#EC6568"/>
</linearGradient>
<linearGradient id="paint5_linear_646_1112" x1="20.9658" y1="0.333929" x2="24.2931" y2="15.5432" gradientUnits="userSpaceOnUse">
<stop stop-color="#FBEA23"/>
<stop offset="1" stop-color="#EC6568"/>
</linearGradient>
<linearGradient id="paint6_linear_646_1112" x1="4.2489" y1="9.33802" x2="17.3562" y2="17.7399" gradientUnits="userSpaceOnUse">
<stop stop-color="#FBEA23"/>
<stop offset="1" stop-color="#EC6568"/>
</linearGradient>
<linearGradient id="paint7_linear_646_1112" x1="0.537427" y1="28.4995" x2="15.7517" y2="25.1711" gradientUnits="userSpaceOnUse">
<stop stop-color="#FBEA23"/>
<stop offset="1" stop-color="#EC6568"/>
</linearGradient>
</defs>
</svg>
