<svg width="68" height="80" viewBox="0 0 68 80" fill="none" xmlns="http://www.w3.org/2000/svg">
<g opacity="0.1">
<path d="M59.167 0L67.4206 37.7278C67.7393 39.1845 66.8082 40.637 65.3515 40.9557L59.9221 42.1435L51.6685 4.41567C51.3498 2.959 52.2809 1.50645 53.7376 1.18778L59.167 0Z" fill="#151515"/>
<path d="M12.9678 21.3086L45.4815 42.15C46.7369 42.9547 47.1056 44.6402 46.3009 45.8956L43.3016 50.5746L10.7879 29.7332C9.53252 28.9285 9.16379 27.243 9.96848 25.9877L12.9678 21.3086Z" fill="#151515"/>
<path d="M0 71.6191L37.7278 63.3656C39.1845 63.0469 40.637 63.978 40.9557 65.4346L42.1435 70.8641L4.41567 79.1177C2.959 79.4363 1.50645 78.5052 1.18778 77.0486L0 71.6191Z" fill="#151515"/>
</g>
</svg>
