<svg width="33" height="33" viewBox="0 0 33 33" fill="none" xmlns="http://www.w3.org/2000/svg">
<g clip-path="url(#clip0_371_2430)">
<path d="M17 33C25.8366 33 33 25.8366 33 17C33 8.16344 25.8366 1 17 1C8.16344 1 1 8.16344 1 17C1 25.8366 8.16344 33 17 33Z" fill="#FF0000"/>
<path d="M16.7501 8.86399C20.9501 8.86399 24.3865 12.2822 24.3865 16.5004C24.3865 20.7185 20.9683 24.1367 16.7501 24.1367C12.5319 24.1367 9.11375 20.7185 9.11375 16.5004C9.11375 12.2822 12.5501 8.86399 16.7501 8.86399ZM16.7501 8.13672C12.1319 8.13672 8.38647 11.8822 8.38647 16.5004C8.38647 21.1185 12.1319 24.864 16.7501 24.864C21.3683 24.864 25.1137 21.1185 25.1137 16.5004C25.1137 11.8822 21.3683 8.13672 16.7501 8.13672Z" fill="white"/>
<path d="M13.8408 20.682L20.9317 16.3184L13.8408 12.3184V20.682Z" fill="white"/>
</g>
<defs>
<clipPath id="clip0_371_2430">
<rect width="32" height="32" fill="white" transform="translate(0.75 0.5)"/>
</clipPath>
</defs>
</svg>
