<svg width="1211" height="211" viewBox="0 0 1211 211" fill="none" xmlns="http://www.w3.org/2000/svg">
<path d="M63.4826 238.904C43.9786 227.968 28.5459 212.82 17.137 193.458C5.72812 174.096 0 152.177 0 127.655C0 103.133 5.72812 81.5939 17.137 62.2319C28.5459 42.87 43.9786 27.7212 63.4826 16.7858C82.9866 5.85028 104.384 0.40625 127.675 0.40625C150.966 0.40625 172.648 5.89762 192.057 16.7858C211.419 27.7212 226.757 42.87 238.071 62.2319C249.338 81.5939 255.019 103.418 255.019 127.655C255.019 151.893 249.386 174.048 238.071 193.458C226.757 212.82 211.372 227.968 191.915 238.904C172.411 249.839 151.014 255.283 127.723 255.283C104.431 255.283 83.0339 249.839 63.5299 238.904H63.4826ZM167.251 200.559C178.66 193.789 187.56 184.084 193.998 171.492C200.436 158.9 203.608 144.272 203.608 127.655C203.608 111.039 200.389 96.4585 193.998 83.9608C187.56 71.4632 178.66 61.9005 167.251 55.273C155.842 48.6454 142.635 45.2843 127.675 45.2843C112.716 45.2843 99.4608 48.5981 87.9099 55.273C76.359 61.9479 67.4118 71.5105 60.9736 83.9608C54.5354 96.4585 51.3636 110.992 51.3636 127.655C51.3636 144.319 54.5827 158.9 60.9736 171.492C67.4118 184.084 76.359 193.789 87.9099 200.559C99.4134 207.328 112.669 210.737 127.675 210.737C142.682 210.737 155.842 207.328 167.251 200.559Z" fill="#151515"/>
<path d="M399.977 157.243C397.421 165.291 392.308 172.392 384.734 178.451C377.159 184.511 366.934 188.771 354.057 191.233L327.831 196.204L339.24 256.23L307.854 262.195L278.172 105.785L335.737 94.8492C347.856 92.5769 358.555 92.6716 367.833 95.2752C377.159 97.8316 384.639 102.376 390.272 108.909C395.906 115.442 399.598 123.3 401.397 132.579C403.007 140.958 402.486 149.148 399.93 157.243H399.977ZM366.082 156.58C369.49 151.846 370.532 145.881 369.206 138.686C366.318 123.442 356.377 117.43 339.335 120.697L314.481 125.431L323.097 170.924L347.951 166.19C356.614 164.533 362.673 161.362 366.082 156.58Z" fill="#151515"/>
<path d="M475.717 106.448L469.942 152.793L532.193 160.557L528.548 189.955L466.297 182.191L460.19 231.188L530.395 239.946L526.607 270.148L419.335 256.751L442.437 71.6055L549.709 85.0026L545.922 115.205L475.717 106.448Z" fill="#151515"/>
<path d="M676.866 262.953H652.107L596.104 178.309V262.953H571.345V139.443H596.104L652.107 224.276V139.443H676.866V262.953Z" fill="#151515"/>
<path d="M845.678 30.1352L852.495 69.8532L750.241 87.3689L761.034 150.283L839.382 136.839L846.057 175.847L767.709 189.291L785.509 292.965L736.323 301.392L694.285 56.0774L845.773 30.0879L845.678 30.1352Z" fill="#151515"/>
<path d="M925.729 95.7491L918.58 145.645L985.566 155.208L981.021 186.831L914.036 177.268L906.509 230.005L982.063 240.798L977.424 273.273L861.962 256.799L890.413 57.5459L1005.87 74.0202L1001.24 106.495L925.681 95.7018L925.729 95.7491Z" fill="#151515"/>
<path d="M1076.32 245.106C1067.42 245.769 1059.32 244.254 1052.03 240.561C1044.74 236.869 1039.01 231.093 1034.75 223.188L1062.82 208.702C1065.95 213.862 1070.07 217.128 1075.09 218.501C1080.15 219.826 1085.64 218.974 1091.65 215.897C1097.76 212.726 1101.83 208.796 1103.77 204.062C1105.76 199.328 1105.53 194.594 1103.06 189.86C1101.08 185.979 1098.23 183.422 1094.59 182.144C1090.94 180.866 1086.97 180.44 1082.66 180.819C1078.35 181.245 1072.62 182.144 1065.52 183.659C1055.72 185.552 1047.58 186.641 1041 186.973C1034.42 187.304 1027.98 185.931 1021.64 182.996C1015.3 180.014 1009.99 174.428 1005.73 166.191C1001.76 158.474 1000.19 150.71 1001.09 142.994C1001.99 135.278 1005.16 128.035 1010.56 121.407C1015.96 114.732 1023.15 109.099 1032.15 104.46C1045.64 97.5006 1058.28 95.1336 1070.07 97.3112C1081.86 99.4889 1091.23 106.258 1098.19 117.525L1069.36 132.437C1066.8 128.082 1062.97 125.336 1057.9 124.248C1052.84 123.159 1047.34 124.106 1041.47 127.135C1036.36 129.786 1032.95 133.195 1031.25 137.408C1029.54 141.621 1029.97 146.213 1032.57 151.184C1034.37 154.687 1037.02 157.007 1040.53 158.095C1044.03 159.232 1047.87 159.61 1052.03 159.279C1056.2 158.948 1061.88 158.095 1069.12 156.723C1078.87 154.829 1087.11 153.74 1093.78 153.456C1100.46 153.172 1106.99 154.545 1113.43 157.527C1119.87 160.51 1125.22 166.096 1129.38 174.191C1132.98 181.197 1134.54 188.582 1134.02 196.441C1133.5 204.299 1130.66 211.826 1125.5 218.974C1120.34 226.123 1112.96 232.229 1103.35 237.153C1094.26 241.839 1085.22 244.538 1076.32 245.201V245.106Z" fill="#151515"/>
<path d="M1207.35 79.3208L1211 100.529L1176.06 106.494L1194.9 216.322L1168.63 220.819L1149.79 110.991L1114.85 116.956L1111.21 95.7476L1207.31 79.2734L1207.35 79.3208Z" fill="#151515"/>
</svg>
