<svg width="1512" height="115" viewBox="0 0 1512 115" fill="none" xmlns="http://www.w3.org/2000/svg">
<path fill-rule="evenodd" clip-rule="evenodd" d="M112.252 63.1751L121.375 43.1954C121.432 43.0687 121.457 42.9296 121.447 42.7908C121.437 42.6521 121.392 42.5181 121.316 42.4011C121.24 42.2842 121.136 42.188 121.014 42.1213C120.891 42.0546 120.754 42.0196 120.614 42.0195H99.7219C99.4579 42.0153 99.1964 42.0717 98.9578 42.1843C98.7193 42.2969 98.5099 42.4627 98.3461 42.6689C98.107 42.9787 97.985 43.3624 98.0015 43.7528C98.0179 44.1431 98.1717 44.5153 98.436 44.8042L105.777 52.8419L98.436 60.8795C98.1723 61.1682 98.0188 61.54 98.0023 61.9299C97.9859 62.3198 98.1076 62.7031 98.3461 63.0128C98.5095 63.2196 98.7187 63.3859 98.9573 63.499C99.196 63.612 99.4577 63.6685 99.7219 63.6642H111.491C111.652 63.664 111.809 63.6178 111.944 63.5311C112.079 63.4444 112.186 63.3208 112.252 63.1751Z" fill="#EFEFEF"/>
<path d="M940 0C697.946 0 486.986 33.7971 376.344 83.8171C329.41 73.7027 276.279 68 220 68C188.287 68 157.573 69.8108 128.404 73.2014L143.849 39.3784C143.993 39.0654 144.035 38.7158 143.971 38.3778C143.906 38.0397 143.738 37.7299 143.49 37.4908C143.162 37.1854 142.728 37.0183 142.279 37.0246H128.946C128.625 37.0247 128.31 37.1168 128.041 37.2899C127.771 37.463 127.556 37.7097 127.424 38.0007L118.523 57.4913C118.465 57.6181 118.44 57.7575 118.45 57.8965C118.46 58.0355 118.505 58.1698 118.58 58.2871C118.656 58.4043 118.76 58.5008 118.883 58.5675C119.006 58.6343 119.144 58.6693 119.284 58.6693H131.367L124.52 73.6634C78.3002 79.2848 36.0593 88.8848 0 101.531V115H1512V87.7118C1403.85 35.5594 1188.28 0 940 0Z" fill="#EFEFEF"/>
</svg>
