<svg width="32" height="58" viewBox="0 0 32 58" fill="none" xmlns="http://www.w3.org/2000/svg">
<path d="M20 10.25L19.9951 10.4561C19.8879 12.5694 18.14 14.25 16 14.25C13.86 14.25 12.1121 12.5694 12.0049 10.4561L12 10.25L12 4C12 1.79086 13.7909 2.7141e-07 16 1.74846e-07C18.2091 7.8281e-08 20 1.79086 20 4L20 10.25ZM20 35.25L19.9951 35.4561C19.8879 37.5694 18.14 39.25 16 39.25C13.86 39.25 12.1121 37.5694 12.0049 35.4561L12 35.25L12 22.75C12 20.5409 13.7909 18.75 16 18.75C18.2091 18.75 20 20.5409 20 22.75L20 35.25ZM20 54L19.9951 54.2061C19.8879 56.3194 18.14 58 16 58C13.86 58 12.1121 56.3194 12.0049 54.2061L12 54L12 47.75C12 45.5409 13.7909 43.75 16 43.75C18.2091 43.75 20 45.5409 20 47.75L20 54Z" fill="#151515"/>
</svg>
